<svg version="1.1" id="svg-draw" xmlns="http://www.w3.org/2000/svg" xmlns:xlink="http://www.w3.org/1999/xlink" x="0px" y="0px" width="100%" height="100%" xml:space="preserve">
	<g id="svg-content">
		<g id="svg-logo" class="svg-element">
			<g>
				<polygon id="XMLID_20_" fill="#FFFFFF" points="163,28.1 162.3,28.6 161.6,29.2 161.6,30.4 162.3,31.5 161.4,31.2 160.7,31 
					159.6,30.4 158.9,30.4 157.8,29.9 157.2,29.5 156.7,29 156,28.1 156.9,27.5 157.8,27.4 158.5,27.4 159.6,27.4 160.5,27.5 
					161.4,27.9 162.3,28.1"/>
				<polygon id="XMLID_19_" fill="#E50012" points="107.1,7.4 107.1,8.3 107.1,9.4 106.5,10 105.8,10.5 104.5,11.2 103.3,11.2 
					101.4,11.2 99.6,11.2 98.4,11.4 96.7,12 95.7,12.9 95.1,14.3 95.1,14.5 95.3,14.7 95.5,14.7 95.7,15 98.4,13.9 100.9,13.4 
					103.3,12.9 105.6,12.7 108.2,12.7 110.5,12.7 112.9,12.7 115.4,12.9 117.8,13 120.5,13.4 122.6,13.6 125.4,13.6 127.7,13.8 
					130.1,13.6 132.6,13.6 135.1,13 135.9,13.6 136.2,13.6 136.8,13.6 137.3,13 137.7,12.9 138.2,12.3 138.6,12 138.9,11.4 140.2,11.6 
					141.7,11.6 142.9,12 144.2,12.3 145.5,12.7 146.9,13 148,13.6 149.5,13.9 149.5,13.6 149.6,13 149.8,12.9 150.4,12.3 150.9,12.1 
					151.3,12.1 151.8,12.3 152.2,12.7 152.7,12.7 152.7,13 152.9,13.4 153.3,13.6 152.7,13.9 152.5,14.3 152.2,14.7 152.2,15.2 
					153.3,15.6 154.2,15.6 154.9,15.2 155.8,15 156.5,14.7 157.2,14.5 158.2,14.7 158.9,15.4 159.8,16.7 160.9,17.6 162.3,18.5 
					163.9,19.2 165.2,19.9 166.1,21 166.3,22.3 165.6,23.9 166.5,24.6 167.2,25.2 168.1,25.7 169.2,26.5 169.7,27.2 170.5,28.1 
					171,28.8 171,29.9 170.8,30.4 170.3,31 169.7,31.2 169.4,31.3 169.2,31.9 168.8,32.2 168.7,32.8 168.7,33.2 168.1,33.2 167.4,33 
					167,33 166.5,32.8 165.8,32.6 165.4,32.2 164.9,32.2 164.5,32.1 164.7,32.8 165.2,33.5 165.6,33.9 166.3,34.4 166.8,34.8 167,35.5 
					167.2,36.2 166.8,37 165.6,36.8 164.5,36.6 163,36.2 161.8,35.9 160.7,35.3 159.6,34.8 158.2,34.4 156.9,33.9 155.8,33.5 154.5,33 
					153.3,32.6 152.2,32.1 150.9,31.5 149.5,31.2 148.2,31 147.1,30.4 145.3,30.3 143.1,29.9 140.9,29.7 138.6,29.5 136.6,29.2 
					134.4,29.2 132.4,29.2 130.1,29.2 127.9,29.2 125.5,29.2 123.2,29.7 121,29.9 118.7,30.3 116.5,30.4 114.3,31 112.1,31.5 
					109.8,32.1 107.8,32.6 105.4,33.2 103.4,33.9 101.4,34.8 99.5,35.9 97.5,36.8 95.5,37.7 93.7,38.6 91.7,39.9 89.9,40.9 88.2,42.2 
					86.6,43.5 85,44.9 83.3,46.4 81.9,48 79.5,50.7 77.5,53.8 75.4,56.9 73.7,60 72.1,63.2 70.8,66.5 69.7,69.9 68.8,73.4 68.3,76.8 
					67.9,80.3 67.6,83.9 67.6,87.5 68.1,91.1 68.5,94.6 69.2,98.2 70.5,101.8 70.8,103.1 71.6,104.5 72.1,105.8 73,107.1 73.7,108.5 
					74.6,109.6 75.4,110.7 76.3,112 77.5,113 78.6,114.1 79.9,115 81,115.9 82.1,116.7 83.5,117.4 85,117.8 86.6,118.3 88.2,119 
					89.7,119.4 91.3,119.4 92.8,119.4 94,119.4 95.5,119 96.9,118.5 98.4,118.1 99.6,117.4 100.9,116.7 102.5,115.9 103.4,115.2 
					104.9,114.5 106.3,113.8 107.8,113 108.9,112.7 109.6,112.9 110.1,113.4 110.5,114.1 111,114.7 111.2,115.4 111.4,116.1 111.8,117 
					111.8,117.8 111.8,119.4 111.4,120.8 111.2,122.3 110.9,123.7 110.1,124.8 109.4,126.3 108.5,127.2 107.4,128.3 106.5,129.5 
					105.4,130.4 104.2,131.3 103.3,132.2 101.8,133 100.7,134.1 99.5,134.6 98.4,135.3 95.3,136.1 92.4,136.8 89.5,137 86.4,137.3 
					83.5,137.3 80.4,137.3 77.5,136.8 74.6,136.2 71.9,135.3 69,134.6 66.3,133.5 63.6,131.9 61,130.4 58.7,128.6 56.3,126.6 54,124.3 
					53.6,123.9 53.3,123.2 53.1,122.6 52.9,122.3 52.4,121.7 52.2,121.4 51.6,120.8 50.9,120.7 50.7,121 50,121.4 49.6,121.6 
					48.9,121.6 48.4,121.4 48,121 47.3,120.7 46.7,120.5 46.4,119.9 45.8,119 45.1,118.3 44.9,117.6 44.7,116.8 44.4,115.9 44.2,115.2 
					44.2,114.3 44.7,114.1 45.1,113.6 45.3,113.6 46,113.4 46.4,113.6 46.4,113.6 46.4,113.6 46.6,113.8 46.9,112.7 46.6,111.4 
					45.8,110.5 45.3,109.6 42.9,106.2 41.1,101.8 39.5,97.8 38.4,93.5 37.1,89 36.4,84.2 36.1,79.9 35.7,75.4 36.2,74.6 37,74.3 
					37.3,73.7 38,73.5 38.8,73.4 39.3,72.8 39.5,72.1 39.5,71.2 38.8,69.7 38.4,67.9 37.9,66.3 37.9,64.3 37.9,62.7 38,60.9 38.6,59.2 
					39.3,57.6 39.7,55.4 39.7,53.4 39.5,51.3 39.5,48.9 39.7,46.7 40.2,45.1 41.1,43.5 42.9,42.6 42.8,41.5 42.6,40.2 42.8,38.8 
					43.5,37.5 44,37.5 44.4,37.5 44.9,37.5 45.3,37.5 46,38.8 46,40.2 45.8,41.7 45.1,42.6 44.2,42.8 44,43.3 43.7,44 44,44.6 
					44.2,45.5 44.4,46.2 44.7,46.7 44.4,47.5 44.7,47.5 44.7,47.5 44.7,47.5 44.7,47.5 45.1,46.2 45.8,44.6 46.4,42.8 46.9,40.9 
					47.6,39.5 48.7,38.2 49.8,36.8 50.9,35.5 52.7,35.3 53.8,34.8 55.2,34.4 56.3,33.7 57.2,33 58.3,32.1 59.4,31.2 60.3,30.3 61,29 
					62,28.1 62.9,27 63.9,25.7 64.5,24.8 65.8,23.6 66.5,22.6 67.4,21.7 69.7,20.6 72.1,19.4 74.5,18.3 76.4,17 78.8,15.6 81,14.3 
					83.3,13 85.7,12 88,10.7 90.4,9.6 92.9,8.9 95.5,8 98,7.4 100.9,7.1 103.3,7.1 106.2,7.1 106.3,7.2 106.5,7.2 106.9,7.4 	"/>
				<polygon id="XMLID_18_" fill="#E50012" points="114.3,8.2 114.3,8.9 114.9,9.8 114.3,10.5 113.6,11 112.7,11 112,11 111,10.7 
					110.3,10.5 109.6,10 109.1,9.4 108.5,8.9 108,8.2 107.8,7.4 108,7.1 108.5,6.7 108.9,6.5 109.6,6.3 110.1,6.3 110.5,6.3 110.9,6.3 
					111.2,6.3 111.8,6.7 112.1,7.1 112.7,7.1 113,7.4 113.4,7.4 113.8,8 	"/>
				<polygon id="XMLID_17_" fill="#E50012" points="126.6,9.6 125.4,9.8 123.9,10 122.3,10.5 120.8,10.7 119.2,10.7 118.1,10.5 
					116.7,10 115.4,8.9 115,8 115,7.1 115.4,6.3 116.1,5.8 117.6,6.3 119,6.3 120.7,6.3 122.3,6.5 123.9,6.7 125,7.2 126.3,8.2 	"/>
				<polygon id="XMLID_16_" fill="#E50012" points="47.3,34.6 47.3,35.1 47.3,35.5 46.9,36 46.7,36.6 46.4,36.6 46,36.6 45.8,36.6 
					45.3,36.2 45.3,35.3 45.7,34.6 46.4,34.2 	"/>
				<polygon id="XMLID_15_" fill="#E50012" points="173.4,33.2 173.6,33.7 173.6,34.2 173.7,34.6 173.7,35.3 173.6,35.5 173.2,35.9 
					172.6,35.9 172.1,36 171.7,35.9 171.2,35.9 170.8,35.5 170.5,35.3 170.3,34.6 170.1,33.9 170.1,33.2 170.5,32.6 171,32.6 
					171.2,32.2 171.7,32.2 171.9,32.2 172.5,32.6 172.6,32.8 173.2,33 	"/>
				<polygon id="XMLID_14_" fill="#E50012" points="177.4,37.1 177.5,37.9 177.7,38.6 177.7,39.3 177.4,39.9 177.2,39.9 176.6,39.9 
					176.4,39.9 175.9,39.5 175.4,39.3 175,38.8 174.8,38.6 174.3,38.2 174.1,37.5 174.1,37 174.5,36.6 175.2,36.2 175.7,36.2 
					176.4,36.2 177.2,36.8 	"/>
				<polygon id="XMLID_13_" fill="#009353" points="6,96.2 5.1,99.1 4.5,102.2 4.9,104.9 5.3,108 5.1,108.7 4.5,109.1 4.2,109.6 
					3.3,109.6 2.5,109.1 2,108.5 1.6,107.4 1.1,106.5 1.1,105.6 0.9,104.7 0.5,103.8 0.5,102.5 1.8,101.6 2.5,100.7 2.7,99.5 2.7,98.4 
					2.2,96.9 2,95.8 1.6,94.6 1.6,93.3 1.1,92.2 0.4,91.3 0,90.2 0,89 0.4,88.6 0.5,88 1.1,87.5 1.8,87.3 2.9,88 3.6,89 4.3,90.2 
					4.9,91.3 5.3,92.8 5.6,93.8 5.8,95.1 	"/>
				<polygon id="XMLID_12_" fill="#009353" points="10.1,103.3 10.1,105.1 10.7,106.9 11.4,108.2 12.1,109.4 12.9,111.1 13.2,112.5 
					13.2,113.8 12.9,115.8 12.5,116.1 12.5,116.8 12.5,117.4 12.9,118.1 13.2,118.3 13.8,118.5 13.9,118.5 14.5,118.3 14.7,117.6 
					14.9,116.7 14.9,115.8 15.6,115 17.2,116.8 18.8,119 20.8,120.8 22.6,122.6 24.3,124.6 26.4,126.4 28.4,128.3 30.4,130.3 
					32.4,131.9 34.6,133.7 37,135.3 39.1,136.8 41.3,138.4 43.7,139.9 46,141.5 48.4,142.6 50.9,143.8 53.3,144.9 56,146.2 58.3,147.1 
					61,148 63.6,148.7 65.9,149.5 68.8,150.2 71.4,150.4 73.9,150.9 76.4,150.9 79.4,151.1 81.9,150.9 84.4,150.9 87.3,150.4 
					89.9,149.8 92.4,149.3 95.1,148.2 97.6,147.3 100.4,146.4 102.7,145.3 104.9,143.8 107.2,142.4 109.4,140.8 111.2,139.1 113,137.3 
					114.9,135.1 116.1,133 117.4,130.6 118.5,128.3 119,125.5 119.7,122.6 119.7,120.7 119.7,118.5 119.4,116.7 119,114.5 118.5,112.7 
					117.8,110.5 116.7,108.9 115.4,107.4 114.3,107.2 113.4,106.9 112.1,106.3 111.2,105.8 110.3,105.1 109.6,104.5 108.9,103.8 
					108.2,103.1 108.2,102.2 108.5,101.1 108.5,100.5 108.9,99.3 109.1,98.4 109.6,97.6 110.3,96.9 110.9,96 112.7,95.3 114.5,94.6 
					116.5,94.2 118.3,93.8 120.1,93.8 121.7,93.8 123.7,94.2 125.5,94.6 127.2,95.1 129,95.8 130.6,96.6 132.4,97.5 134.1,98.4 
					135.7,99.3 137.3,100.5 138.9,101.6 140.2,103.3 141.7,105.1 143.1,107.2 144.2,109.4 145.5,111.8 146.6,114.1 147.3,116.5 
					148.2,118.7 148.7,121.4 149.3,123.9 149.5,126.3 149.5,128.8 149.5,131.3 148.9,133.7 148.6,136.1 147.8,138.4 146,140.2 
					144.6,142.6 143.3,144.9 142.4,147.6 141.5,150.2 140.6,152.7 139.3,155.1 137.7,157.2 136.8,159.1 135.3,161.2 134.2,162.7 
					132.8,164.3 131.2,165.4 129.5,166.8 127.9,167.9 126.1,169 124.5,169.9 122.5,171 120.8,171.9 119,173.2 117.4,174.1 115.4,175.2 
					113.8,176.3 112.1,177.5 111.2,177.9 110.1,178.3 109.1,178.6 108,179 107.1,179.2 106.2,179.7 104.9,179.9 104,180.4 103.1,180.8 
					102,181.2 101.1,181.5 100,182.1 99.1,182.2 97.8,182.8 96.9,183 95.7,183.5 95.3,183 94.7,182.6 94.6,182.1 94,181.5 93.8,180.8 
					93.5,180.6 92.8,180.4 92,180.4 89.9,180.4 87.7,180.6 85.9,180.8 83.9,181.2 81.7,181.5 79.5,181.5 77.7,182.1 75.5,182.1 
					73.6,182.2 71.6,182.2 69.6,182.2 67.6,182.1 65.8,181.9 63.6,181.3 61.8,180.6 60,179.9 60.5,178.3 60.3,177.2 59.4,176.5 
					58.3,175.9 57.1,175.7 55.6,175.5 54.3,175.2 53.3,174.6 53.3,175.5 53.6,176.3 54,176.8 54.5,177.5 54.7,178.3 54.9,179.2 
					54.7,179.9 54.3,180.6 53.3,180.8 52.4,180.8 51.4,180.6 50.7,180.4 49.8,180.3 48.9,179.7 48,179.2 47.3,178.8 46.7,177.9 
					46.6,177.2 46.6,176.5 46.7,175.7 47.3,175 47.5,174.3 48,173.9 48.4,173.4 47.5,173.2 46.6,173.2 45.3,173.2 44.4,173.4 
					43.3,173.9 42.4,174.1 41.3,174.6 40.2,174.6 39.1,173.9 37.7,173.2 36.8,171.9 35.5,171 34.6,169.9 33.7,168.7 33,167.6 
					32.2,166.3 31.3,165.2 30.6,164 29.7,162.9 29,161.6 27.7,160.7 26.6,159.8 25.5,158.9 23.7,158.2 22.6,155.8 21.2,153.3 
					19.7,150.5 18.7,147.8 17.6,145.3 16.3,142.6 15.2,139.9 13.8,137.3 13.2,135 13.2,133 13.2,131.2 13.8,129 12.9,127.9 12.1,126.4 
					11.6,125 11.2,123.4 10.7,121.7 10.1,120.5 9.8,119 9.1,117.8 8.5,115.9 8,114.1 7.4,112.1 6.9,110.3 6.7,108.5 6.7,106.3 
					6.9,104.7 7.6,102.9 8,102.9 8.3,102.9 8.5,102.9 9.1,102.9 9.2,102.9 9.6,103.1 9.8,103.1 	"/>
				<polygon id="XMLID_11_" fill="#009353" points="30.6,166.8 31.2,167.8 31.5,169 31.5,170.1 31.2,171.2 30.4,171.2 29.7,171.2 
					29,171 28.3,170.8 27.5,170.7 26.8,170.1 26.4,169.6 25.9,169.2 25.7,167.9 25.7,166.8 26.4,166.1 27.2,165.4 27.5,165.4 
					28.3,165.4 28.8,165.4 29.2,165.4 29.7,165.6 29.9,165.9 30.4,166.3 	"/>
				<polygon id="XMLID_10_" fill="#FCCF00" points="192.8,146.2 192.6,147.3 192.6,148.5 192,149.6 191.3,150.5 190.4,151.8 
					189.7,152.7 188.8,153.4 188,154.5 187.9,154.5 187.3,154.5 187.1,154.5 186.8,154.5 186.4,154.9 186.2,154.9 185.7,154.9 
					185.5,155.1 185.5,153.4 185.7,151.8 186.2,150.4 187,148.9 187.9,147.6 189,146.4 190,145.3 191.1,144.2 192,144 192.6,144.6 
					192.8,145.5 	"/>
				<polygon id="XMLID_9_" fill="#FCCF00" points="186,159.6 185.7,160.5 185.5,161.4 185,162.1 184.4,162.9 183.7,163.6 182.8,164 
					181.7,164.5 180.8,164.7 180.4,164.5 180.4,163.8 180.4,163 180.6,162.3 181.2,161.6 181.7,161.1 182.4,160.3 183.2,159.6 
					183.9,159.1 184.6,159.1 185.3,159.1 	"/>
				<polygon id="XMLID_8_" fill="#FCCF00" points="176.6,170.3 176.4,170.8 175.9,171 175.4,171.6 175,172.3 174.5,172.5 173.7,172.6 
					173.4,172.6 172.6,172.8 172.1,172.6 171.7,171.9 171.7,171.2 171.9,170.8 172.1,170.3 172.6,170.1 172.8,169.6 173.2,169.2 
					173.6,168.7 173.7,168.5 174.3,168.3 174.8,167.9 175.7,167.9 176.4,168.7 176.6,169.4 	"/>
				<polygon id="XMLID_7_" fill="#FCCF00" points="142.6,50.2 143.3,50.5 144,51.3 144.6,52 145.3,52.9 146,53.4 146.6,53.8 
					147.6,54.2 148.7,53.8 149.6,53.6 150.9,53.4 152,53.4 152.9,53.4 153.8,53.6 154.9,53.8 155.8,54.5 156.5,55.3 157.2,56.7 
					157.8,57.8 159.1,59.2 160,60.1 161.2,61.4 162.3,62.3 163.8,63 165.4,63.4 166.3,63.8 167.4,63.9 168.7,63.9 170.1,63.9 171,64.1 
					172.1,64.1 173.6,64.3 174.8,64.7 175.7,64.9 176.8,65.4 177.7,65.8 178.8,66.3 179.3,67 180.4,67.9 181.2,68.8 181.5,69.9 
					181.3,71.7 181.3,73 181.5,74.6 182.2,76.1 184.1,76.6 185.7,77 187,77.9 187.9,79.2 188.8,80.6 189.5,81.7 190,83.3 190.4,84.8 
					190.9,86.4 191.3,88 191.8,89.7 192.4,91.1 192.9,92.8 194,93.8 195.1,95.1 196.4,96 196.7,96.9 196.9,97.6 197.3,98.9 197.5,99.8 
					197.6,100.7 198,101.4 198.6,101.6 199.3,101.4 199.1,101.6 198.9,102.2 198.4,102.4 198.2,102.5 198.4,104.7 198.9,106.9 
					199.3,108.9 199.8,111.1 200,113 200,115 199.6,116.8 198.6,118.5 198.2,118.7 197.6,118.5 197.3,118.3 196.7,118.1 196.6,117.4 
					196.4,116.5 196,115.8 195.3,115.2 194.7,115.8 194.7,116.5 194.7,117 194.4,117.8 194.7,120.8 195.1,123.9 195.7,126.6 
					195.8,129.7 195.8,132.8 195.7,135.7 194.7,138.2 193.5,140.9 192.9,140.9 192.6,141.3 192,141.3 191.7,141.3 190.9,141.3 
					190.8,140.9 190.4,140.6 190.2,140 190.2,139.3 190,138.6 189.7,138 189.5,137.5 189.3,137.5 189,137.5 189,137.7 188.8,137.7 
					188.4,139.9 187.7,141.7 187,143.7 186.2,145.7 185.3,147.6 184.4,149.6 183.3,151.6 182.4,153.4 181.3,155.4 180.1,157.1 
					179,158.9 177.7,160.5 176.4,162.1 174.8,163.6 173.4,165.2 171.7,166.3 170.8,167 170.1,167.8 169.2,168.5 168.5,169.4 
					167.4,170.1 166.8,171 166.1,171.7 165.4,172.6 164.5,173.4 163.8,174.1 162.9,175 161.8,175.7 161.2,176.5 160.1,177.2 
					159.2,177.5 158.3,178.3 157.4,177.9 157.4,177.2 157.6,176.5 157.6,175.9 159.1,173.6 160.7,171.2 162.1,169 163.2,166.7 
					164.7,164.3 165.8,162 166.8,159.6 167.8,157.1 168.7,154.9 169.6,152.2 170.1,149.6 170.8,147.1 171.2,144.6 171.7,142.2 
					171.9,139.7 172.1,137 172.5,131.9 172.1,126.6 171.4,121.6 170.5,116.5 169.4,111.4 167.4,106.5 165.4,101.6 162.9,96.9 
					161.4,95.1 160,93.3 158.3,91.3 156.7,89.7 154.9,88 152.9,86.4 150.9,84.8 148.9,83.5 146.9,82.2 144.6,81.3 142.4,80.1 140,79.3 
					138,78.6 135.7,78.3 133.3,77.9 131,77.7 128.8,77.7 127,77.7 124.8,77.7 123,77.9 120.8,78.4 119.2,79 117,79.5 115.4,80.3 
					113.6,81.3 112,82.2 110.3,83.2 108.7,84.2 107.2,85.7 105.8,87.1 104.5,88.6 103.3,89.9 102.5,91.5 101.6,92.9 100.9,94.6 
					100.2,96.2 100,97.8 100,99.5 100.2,101.1 100.9,102.9 101.4,103.4 101.8,104.2 102,104.7 102.5,105.4 103.1,106.2 103.3,106.9 
					103.3,107.8 103.3,108.5 102.7,109.4 102,109.8 101.4,110.3 100.4,110.5 99.5,110.7 98.4,110.7 97.5,111.1 96.4,111.1 94.6,110.5 
					92.8,109.8 91.1,108.9 89.5,107.4 88.2,106.2 87.1,104.5 86,102.5 85.5,100.5 84.2,95.8 83.5,91.1 83.9,86.6 84.8,82.2 85.9,77.7 
					87.7,73.5 90.4,69.4 92.9,65.4 94.7,63.4 96.7,61.8 98.7,60.1 100.9,59.1 103.1,57.6 105.1,56.7 107.4,55.4 110.1,54.5 112.5,53.6 
					115,52.9 117.6,52.2 120.5,51.4 123,50.7 125.5,50.4 128.1,49.6 131,48.9 132.4,48.9 133.7,48.9 135.3,48.9 137,48.9 138.4,49.1 
					139.9,49.5 141.5,49.6 	"/>
				<polygon id="XMLID_6_" fill="#FCCF00" points="149.8,50.5 149.8,50.7 149.8,51.1 149.8,51.4 149.8,52 149.5,52.2 148.7,52.2 
					148,52.2 147.6,52.2 147.1,52 146.6,51.8 146.2,51.3 146.2,50.7 146.2,50.4 146.2,49.8 146.2,49.5 146.2,48.9 146.9,48.7 
					147.3,48.7 148,48.9 148.6,49.1 148.9,49.5 149.3,49.6 149.6,49.8 	"/>
				<polygon id="XMLID_5_" fill="#FCCF00" points="167.9,58.7 167.9,59.1 167.9,59.2 168.1,59.8 168.5,60 167.2,60.7 166.3,60.9 
					165.4,61 164.5,60.9 163.2,60.3 162.5,60 161.6,59.4 160.9,58.7 160.7,58.2 160.5,57.4 160.5,56.7 160.1,56 161.4,56 162.3,56 
					163.2,56 164.5,56.3 165.2,56.9 166.3,57.4 167.2,58.2 	"/>
				<polygon id="XMLID_4_" fill="#FCCF00" points="189.3,76.6 188.8,77.4 188.4,77.5 187.7,77.7 187,77.9 186.8,77.4 186.2,76.8 
					185.7,76.1 185.3,75.4 185,74.6 184.6,73.9 184.6,73.4 184.6,72.6 185.5,72.8 186.2,73 187,73.4 187.7,73.9 188,74.5 188.6,75.2 
					188.8,76.1 	"/>
				<polygon id="XMLID_3_" fill="#FCCF00" points="192.8,79.9 192.8,79.9 192.8,80.1 192.8,80.1 192.8,80.1 192.6,80.1 192.6,80.1 
					192.4,80.3 192.4,80.3 192.4,80.1 192,80.1 192,79.9 192,79.9 192.6,79.5 192.6,79.5 	"/>
				<polygon id="XMLID_2_" fill="#FCCF00" points="155.3,182.2 155.1,183.5 154.5,184.6 154.2,185.9 153.3,186.8 152.5,187.7 
					151.3,188.6 150.4,189.3 149.3,189.9 148.6,190 148,190 147.8,189.9 147.3,189.5 147.3,189.1 147.1,188.6 146.9,188.2 146.6,187.9 
					147.3,186.6 148,185.3 148.9,184.4 150.2,183.5 151.1,183 152.2,182.2 153.6,181.9 154.9,181.5 154.9,181.5 155.1,182.1 	"/>
				<polygon id="XMLID_1_" fill="#FCCF00" points="143.7,191.7 143.7,192.2 143.3,192.6 143.1,193.1 142.9,193.3 142.4,193.3 
					142,193.5 141.5,193.8 141.3,194 140.6,194.2 140.2,194 140,194 139.3,193.8 139.3,193.3 139.3,192.8 139.9,192.4 140,192.2 
					140.6,191.7 140.8,191.5 141.3,191.5 141.7,191.5 142.2,191.5 142.6,191.5 143.1,191.5 	"/>
			</g>
			 </g>
		<g id="svg-name" class="svg-element"></g>
		<g id="svg-slogan" class="svg-element"></g>
		<g id="svg-atext" class="svg-element"></g>
	</g>
</svg>