<?xml version="1.0" encoding="utf-8"?>
<!-- Generator: Adobe Illustrator 21.0.0, SVG Export Plug-In . SVG Version: 6.00 Build 0)  -->
<svg version="1.1" xmlns="http://www.w3.org/2000/svg" xmlns:xlink="http://www.w3.org/1999/xlink" x="0px" y="0px"
	 viewBox="0 0 200 120" style="enable-background:new 0 0 200 120;" xml:space="preserve">
<style type="text/css">
	.st0{display:none;}
	.st1{display:inline;}
	.st2{fill:#DDDDDD;}
	.st3{fill:#0066FF;}
	.st4{fill:#0066CC;}
	.st5{fill:#33EECC;}
	.st6{fill:url(#SVGID_1_);}
</style>
<g id="图层_1" class="st0">
	<g class="st1">
		<path class="st2" d="M199,1v118H1V1H199 M200,0H0v120h200V0L200,0z"/>
	</g>
</g>
<g id="图层_2">
	<g>
		<path class="st3" d="M45,81.5V51.9h13.4c7.4,0,13.4,6,13.4,13.4v2.7c0,7.4-6,13.4-13.4,13.4H45z"/>
		<g>
			<path class="st4" d="M45,70.7V54.6h21.5v2.7c0,7.4-6,13.4-13.4,13.4H45z"/>
		</g>
		<g>
			<path class="st5" d="M39.7,68.1V38.5h13.4c7.4,0,13.4,6,13.4,13.4v2.7c0,7.4-6,13.4-13.4,13.4H39.7z"/>
		</g>
		<linearGradient id="SVGID_1_" gradientUnits="userSpaceOnUse" x1="45.0199" y1="66.7087" x2="71.8549" y2="66.7087">
			<stop  offset="0" style="stop-color:#0066FF;stop-opacity:0"/>
			<stop  offset="1" style="stop-color:#0066FF"/>
		</linearGradient>
		<path class="st6" d="M45,81.5V51.9h13.4c7.4,0,13.4,6,13.4,13.4v2.7c0,7.4-6,13.4-13.4,13.4H45z"/>
		<g>
			<g>
				<polygon class="st3" points="90,57.9 91.8,66.7 94.1,66.7 92.3,57.9 				"/>
				<polygon class="st3" points="79.9,66.7 82.2,66.7 84,57.9 81.7,57.9 				"/>
				<polygon class="st3" points="93.9,54.4 88.5,54.4 88.5,48.4 86.2,48.4 86.2,54.4 82.6,54.4 84.7,47.2 93.9,47.2 93.9,45.3 
					85.3,45.3 85.6,44.1 83.4,43.7 82.9,45.3 79.9,45.3 79.9,47.2 82.4,47.2 80.1,55.1 81.2,56.2 86.2,56.2 86.2,64.8 84.4,64.8 
					84.4,66.7 88,66.7 88.5,66.1 88.5,56.2 93.9,56.2 				"/>
				<polygon class="st3" points="98.6,50.3 96.5,50.3 96.5,54.7 97.1,55.3 99.3,55.3 99.3,53.4 98.6,53.4 				"/>
				<polygon class="st3" points="98.6,44.1 96.5,44.1 96.5,48.4 97.1,48.9 99.3,48.9 99.3,47.1 98.6,47.1 				"/>
				<polygon class="st3" points="96.5,57.5 96.5,66.7 98.6,66.7 98.6,58.8 99.3,58.8 99.3,56.9 97.1,56.9 				"/>
				<path class="st3" d="M103.5,43.7h-2v3.8h-1.4v1.8h1.4v5.7h-0.5l-0.8,0.6v10.2l0.8,0.6h3.2l0.8-0.6V55.7l-0.8-0.6h-0.6v-5.7h1.5
					v-1.8h-1.5V43.7z M102.7,64.7h-0.4v-7.9h0.4V64.7z"/>
				<path class="st3" d="M106.2,44.1l-0.5,0.5v22.1h1.9v-7h1v5.2h-0.4v1.9h1.8l0.5-0.5V44.6l-0.5-0.5H106.2z M108.6,57.8h-1v-5.4h1
					V57.8z M108.6,50.6h-1v-4.7h1V50.6z"/>
				<path class="st3" d="M122.9,51.5h4.2v-2.1h-4.7c-0.5,0-0.8-0.4-0.8-0.8v-4.8h-2.8v4.8c0,0.5-0.4,0.8-0.8,0.8h-4.7v2.1h4.2
					c0.4,0,0.7,0.4,0.6,0.8l-5.4,13.9l2.6,0.8l4.5-12.4c0.2-0.5,0.9-0.5,1.1,0l4.5,12.4l2.6-0.8l-5.4-13.9
					C122.2,51.9,122.5,51.5,122.9,51.5z"/>
				<polygon class="st3" points="132.1,50.5 132.5,50.5 132.5,55.6 134.6,55.6 134.6,50.5 135,50.5 135.4,55.6 137.5,55.5 
					137.1,50.5 137.4,50.5 137.4,48.4 134.6,48.4 134.6,43.7 132.5,43.7 132.5,48.4 129.7,48.4 129.7,50.5 130,50.5 129.6,55.5 
					131.7,55.6 				"/>
				<polygon class="st3" points="131.9,48 131.7,44.1 129.7,44.1 129.9,48 				"/>
				<polygon class="st3" points="137.5,44.1 135.4,44.1 135.2,48 137.2,48 				"/>
				<polygon class="st3" points="142.1,61.8 143.5,57.8 143.5,47.6 144,47.6 144,45.8 140.2,45.8 140.2,43.7 138,43.7 138,47.1 
					138.6,47.6 141.4,47.6 141.4,57.4 140.9,58.8 140.4,57.4 140.4,48.4 138.3,48.4 138.3,57.8 139.8,61.8 138.7,64.9 137.9,64.9 
					137.9,66.7 140.3,66.7 141,64.7 141.8,66.7 144,66.7 144,64.9 143.2,64.9 				"/>
				<path class="st3" d="M132.4,56.1h-2.2v1.1h-0.6v1.8h0.6v2.6l0.3,0.3l1.6,1.5l-1.6,1.4h-0.9v1.8h1.9l0.3-0.3l1.8-1.6l1.8,1.6
					l0.3,0.3h1.9v-1.8h-0.9l-1.6-1.4l1.7-1.5l0.3-0.3v-2.6h0.5v-1.8h-5.1V56.1z M134.8,59.1V61l-1.2,1.1l-1.2-1.1v-1.9H134.8z"/>
				<path class="st3" d="M160.4,55.9V54h-2.3v-2.9H156V54h-2.5v-3.4h6.4l0.5-0.5v-5.7l-0.5-0.5h-8l-0.5,0.5v20.5h-1v1.8h2.7l0.5-0.5
					V55.9h2.5v2.2h-1.6l-0.5,0.5v7.6l0.5,0.5h5.5l0.5-0.5v-7.6l-0.5-0.5h-1.7v-2.2H160.4z M153.4,45.7h4.8v3h-4.8V45.7z M158.4,59.9
					v4.9h-2.7v-4.9H158.4z"/>
				<polygon class="st3" points="150.8,57 149.6,57 149.6,49.1 150.8,49.1 150.8,47.3 149.6,47.3 149.6,43.8 147.4,43.8 147.4,47.3 
					146.2,47.3 146.2,49.1 147.4,49.1 147.4,57 146.2,57 146.2,58.8 147.4,58.8 147.4,64.9 146.5,64.9 146.5,66.7 149.1,66.7 
					149.6,66.2 149.6,58.8 150.8,58.8 				"/>
			</g>
		</g>
		<g>
			<path class="st3" d="M79.9,69.6h2.2c1.9,0,3,1.1,3,2.7c0,1.6-1.1,2.7-3,2.7h-2.2V69.6z M80.7,70.3v4.2h1.4c1.4,0,2.1-0.9,2.1-2.1
				c0-1.2-0.7-2.1-2.1-2.1H80.7z"/>
			<path class="st3" d="M85.8,72.4c0-1.6,1-2.8,2.9-2.8c1.9,0,2.9,1.2,2.9,2.8c0,1.6-1,2.8-2.9,2.8C86.8,75.2,85.8,74,85.8,72.4z
				 M90.8,72.4c0-1.2-0.7-2.2-2.1-2.2c-1.4,0-2.1,1-2.1,2.2c0,1.2,0.7,2.2,2.1,2.2C90.1,74.6,90.8,73.6,90.8,72.4z"/>
			<path class="st3" d="M92.7,69.6h0.8l3.8,4.5v-4.5h0.8v5.5h-0.8l-3.8-4.5v4.5h-0.8V69.6z"/>
			<path class="st3" d="M99.2,72.4c0-1.8,1.2-2.8,3.1-2.8c0.6,0,1.5,0.1,2,0.3v0.7c-0.5-0.2-1.3-0.3-1.8-0.3c-1.6,0-2.5,0.7-2.5,2.2
				c0,1.6,1,2.2,2.4,2.2c0.8,0,1.3-0.1,1.6-0.2v-1.9h0.8v2.4c-0.6,0.2-1.4,0.3-2.4,0.3C100.4,75.2,99.2,74.2,99.2,72.4z"/>
			<path class="st3" d="M110.2,72.7h-3.5v2.4h-0.8v-5.5h0.8V72h3.5v-2.4h0.8v5.5h-0.8V72.7z"/>
			<path class="st3" d="M112.3,73v-3.4h0.8V73c0,1,0.6,1.6,1.7,1.6c1.1,0,1.7-0.5,1.7-1.6v-3.3h0.8V73c0,1.3-1,2.1-2.5,2.1
				C113.3,75.2,112.3,74.4,112.3,73z"/>
			<path class="st3" d="M120.8,69.6h2.1c1.5,0,2.3,0.5,2.3,1.5c0,0.6-0.3,1-0.9,1.2c0.7,0.2,1.2,0.6,1.2,1.3c0,1-0.8,1.5-2.3,1.5
				h-2.3V69.6z M121.6,70.2V72h1.1c1.1,0,1.7-0.2,1.7-0.9s-0.6-0.9-1.7-0.9H121.6z M121.6,72.7v1.8h1.4c1.1,0,1.7-0.2,1.7-0.9
				s-0.6-0.9-1.7-0.9H121.6z"/>
			<path class="st3" d="M126.2,69.6h2.8v0.6h-1v4.2h1v0.6h-2.8v-0.6h1v-4.2h-1V69.6z"/>
			<path class="st3" d="M129.7,72.4c0-1.8,1.2-2.8,3.1-2.8c0.6,0,1.5,0.1,2,0.3v0.7c-0.5-0.2-1.3-0.3-1.8-0.3
				c-1.6,0-2.5,0.7-2.5,2.2c0,1.6,1,2.2,2.4,2.2c0.8,0,1.3-0.1,1.6-0.2v-1.9h0.8v2.4c-0.6,0.2-1.4,0.3-2.4,0.3
				C130.9,75.2,129.7,74.2,129.7,72.4z"/>
			<path class="st3" d="M138.5,69.6h2.2c1.9,0,3,1.1,3,2.7c0,1.6-1.1,2.7-3,2.7h-2.2V69.6z M139.3,70.3v4.2h1.4
				c1.4,0,2.1-0.9,2.1-2.1c0-1.2-0.7-2.1-2.1-2.1H139.3z"/>
			<path class="st3" d="M146.6,69.6h0.9l2.7,5.5h-0.9l-0.7-1.3h-3.3l-0.7,1.3h-0.9L146.6,69.6z M145.6,73.1h2.7l-1.4-2.8L145.6,73.1
				z"/>
			<path class="st3" d="M149.5,69.6h5.2v0.6h-2.2v4.8h-0.8v-4.8h-2.2V69.6z"/>
			<path class="st3" d="M156.8,69.6h0.9l2.7,5.5h-0.9l-0.7-1.3h-3.3l-0.7,1.3h-0.9L156.8,69.6z M155.9,73.1h2.7l-1.4-2.8L155.9,73.1
				z"/>
		</g>
	</g>
</g>
</svg>
