<?xml version="1.0" encoding="utf-8"?>
<!-- Generator: Adobe Illustrator 21.0.0, SVG Export Plug-In . SVG Version: 6.00 Build 0)  -->
<svg version="1.1" xmlns="http://www.w3.org/2000/svg" xmlns:xlink="http://www.w3.org/1999/xlink" x="0px" y="0px"
	 viewBox="0 0 200 120" style="enable-background:new 0 0 200 120;" xml:space="preserve">
<style type="text/css">
	.st0{display:none;}
	.st1{display:inline;}
	.st2{fill:#DDDDDD;}
	.st3{fill:#0066FF;}
	.st4{fill:#0066CC;}
	.st5{fill:#33EECC;}
	.st6{fill:url(#SVGID_1_);}
</style>
<g id="图层_1" class="st0">
	<g class="st1">
		<path class="st2" d="M199,1v118H1V1H199 M200,0H0v120h200V0L200,0z"/>
	</g>
</g>
<g id="图层_2">
	<g>
		<g>
			<path class="st3" d="M89.3,61.5V32h13.4c7.4,0,13.4,6,13.4,13.4v2.7c0,7.4-6,13.4-13.4,13.4H89.3z"/>
			<g>
				<path class="st4" d="M89.3,50.8V34.7h21.5v2.7c0,7.4-6,13.4-13.4,13.4H89.3z"/>
			</g>
			<g>
				<path class="st5" d="M83.9,48.1V18.6h13.4c7.4,0,13.4,6,13.4,13.4v2.7c0,7.4-6,13.4-13.4,13.4H83.9z"/>
			</g>
			<linearGradient id="SVGID_1_" gradientUnits="userSpaceOnUse" x1="89.2659" y1="46.7614" x2="116.1012" y2="46.7614">
				<stop  offset="0" style="stop-color:#0066FF;stop-opacity:0"/>
				<stop  offset="1" style="stop-color:#0066FF"/>
			</linearGradient>
			<path class="st6" d="M89.3,61.5V32h13.4c7.4,0,13.4,6,13.4,13.4v2.7c0,7.4-6,13.4-13.4,13.4H89.3z"/>
		</g>
		<g>
			<path class="st3" d="M124.2,69.2h-9.7v23.6h9.7c5.9,0,10.7-4.8,10.7-10.7v-2.1C134.9,74,130.1,69.2,124.2,69.2z M130.6,82
				c0,3.6-2.9,6.4-6.4,6.4h-5.4v-15h5.4c3.6,0,6.4,2.9,6.4,6.4V82z"/>
			<path class="st3" d="M74.8,69.2h-9.7v23.6h9.7c5.9,0,10.7-4.8,10.7-10.7v-2.1C85.5,74,80.7,69.2,74.8,69.2z M81.2,82
				c0,3.6-2.9,6.4-6.4,6.4h-5.4v-15h5.4c3.6,0,6.4,2.9,6.4,6.4V82z"/>
			<path class="st3" d="M103.2,69.2H89.8v9.7h4.3v-5.4h9.1c1.5,0,2.7,1.2,2.7,2.7s-1.2,2.7-2.7,2.7h-9.1v4.3h9.1
				c1.5,0,2.7,1.2,2.7,2.7s-1.2,2.7-2.7,2.7h-9.1v-5.4h-4.3v9.7h13.4c3.8,0,7-3.1,7-7c0-1.9-0.7-3.6-1.9-4.8c1.2-1.3,1.9-3,1.9-4.8
				C110.2,72.3,107.1,69.2,103.2,69.2z"/>
		</g>
		<g>
			<path class="st3" d="M65.1,96.6H67c1.7,0,2.6,0.9,2.6,2.4c0,1.4-1,2.4-2.6,2.4h-1.9V96.6z M65.8,97.2v3.6H67
				c1.2,0,1.9-0.8,1.9-1.8c0-1.1-0.6-1.8-1.9-1.8H65.8z"/>
			<path class="st3" d="M70.2,99c0-1.4,0.9-2.4,2.5-2.4c1.7,0,2.5,1,2.5,2.4c0,1.4-0.9,2.4-2.5,2.4C71.1,101.4,70.2,100.4,70.2,99z
				 M74.6,99c0-1.1-0.6-1.9-1.8-1.9c-1.2,0-1.8,0.8-1.8,1.9c0,1.1,0.6,1.9,1.8,1.9C74,100.9,74.6,100,74.6,99z"/>
			<path class="st3" d="M76.2,96.6h0.7l3.3,3.9v-3.9h0.7v4.7h-0.7l-3.3-3.9v3.9h-0.7V96.6z"/>
			<path class="st3" d="M81.8,99c0-1.5,1-2.4,2.7-2.4c0.6,0,1.3,0.1,1.7,0.3v0.6c-0.5-0.2-1.1-0.3-1.6-0.3c-1.4,0-2.1,0.6-2.1,1.9
				c0,1.4,0.9,1.9,2.1,1.9c0.7,0,1.1-0.1,1.4-0.2v-1.6h0.7v2.1c-0.5,0.2-1.2,0.3-2.1,0.3C82.9,101.4,81.8,100.5,81.8,99z"/>
			<path class="st3" d="M91.4,99.2h-3v2.1h-0.7v-4.7h0.7v2.1h3v-2.1h0.7v4.7h-0.7V99.2z"/>
			<path class="st3" d="M93.2,99.6v-2.9h0.7v2.9c0,0.9,0.5,1.4,1.5,1.4c1,0,1.5-0.5,1.5-1.4v-2.9h0.7v2.9c0,1.2-0.9,1.9-2.2,1.9
				C94,101.4,93.2,100.7,93.2,99.6z"/>
			<path class="st3" d="M100.6,96.6h1.8c1.3,0,2,0.5,2,1.3c0,0.5-0.3,0.8-0.8,1c0.6,0.2,1,0.5,1,1.1c0,0.9-0.7,1.3-2,1.3h-2V96.6z
				 M101.2,97.1v1.6h1c1,0,1.5-0.2,1.5-0.8s-0.5-0.8-1.5-0.8H101.2z M101.2,99.2v1.6h1.2c1,0,1.5-0.2,1.5-0.8s-0.5-0.8-1.5-0.8
				H101.2z"/>
			<path class="st3" d="M105.3,96.6h2.4v0.5h-0.9v3.6h0.9v0.5h-2.4v-0.5h0.9v-3.6h-0.9V96.6z"/>
			<path class="st3" d="M108.3,99c0-1.5,1-2.4,2.7-2.4c0.6,0,1.3,0.1,1.7,0.3v0.6c-0.5-0.2-1.1-0.3-1.6-0.3c-1.4,0-2.1,0.6-2.1,1.9
				c0,1.4,0.9,1.9,2.1,1.9c0.7,0,1.1-0.1,1.4-0.2v-1.6h0.7v2.1c-0.5,0.2-1.2,0.3-2.1,0.3C109.3,101.4,108.3,100.5,108.3,99z"/>
			<path class="st3" d="M115.9,96.6h1.9c1.7,0,2.6,0.9,2.6,2.4c0,1.4-1,2.4-2.6,2.4h-1.9V96.6z M116.6,97.2v3.6h1.3
				c1.2,0,1.9-0.8,1.9-1.8c0-1.1-0.6-1.8-1.9-1.8H116.6z"/>
			<path class="st3" d="M122.9,96.6h0.8l2.4,4.7h-0.8l-0.6-1.2h-2.8l-0.6,1.2h-0.7L122.9,96.6z M122.1,99.6h2.4l-1.2-2.4L122.1,99.6
				z"/>
			<path class="st3" d="M125.4,96.6h4.5v0.5H128v4.2h-0.7v-4.2h-1.9V96.6z"/>
			<path class="st3" d="M131.7,96.6h0.8l2.4,4.7h-0.8l-0.6-1.2h-2.8l-0.6,1.2h-0.7L131.7,96.6z M130.9,99.6h2.4l-1.2-2.4L130.9,99.6
				z"/>
		</g>
	</g>
</g>
</svg>
