<?xml version="1.0" encoding="utf-8"?>
<!-- Generator: Adobe Illustrator 21.0.0, SVG Export Plug-In . SVG Version: 6.00 Build 0)  -->
<svg version="1.1" xmlns="http://www.w3.org/2000/svg" xmlns:xlink="http://www.w3.org/1999/xlink" x="0px" y="0px"
	 viewBox="0 0 200 120" style="enable-background:new 0 0 200 120;" xml:space="preserve">
<style type="text/css">
	.st0{display:none;}
	.st1{display:inline;}
	.st2{fill:#DDDDDD;}
	.st3{fill:#0066FF;}
	.st4{fill:#0066CC;}
	.st5{fill:#33EECC;}
	.st6{fill:url(#SVGID_1_);}
</style>
<g id="图层_1" class="st0">
	<g class="st1">
		<path class="st2" d="M199,1v118H1V1H199 M200,0H0v120h200V0L200,0z"/>
	</g>
</g>
<g id="图层_2">
	<g>
		<path class="st3" d="M50.4,81.5V51.9h13.4c7.4,0,13.4,6,13.4,13.4v2.7c0,7.4-6,13.4-13.4,13.4H50.4z"/>
		<g>
			<path class="st4" d="M50.4,70.7V54.6h21.5v2.7c0,7.4-6,13.4-13.4,13.4H50.4z"/>
		</g>
		<g>
			<path class="st5" d="M45,68.1V38.5h13.4c7.4,0,13.4,6,13.4,13.4v2.7c0,7.4-6,13.4-13.4,13.4H45z"/>
		</g>
		<linearGradient id="SVGID_1_" gradientUnits="userSpaceOnUse" x1="50.3548" y1="66.7088" x2="77.19" y2="66.7088">
			<stop  offset="0" style="stop-color:#0066FF;stop-opacity:0"/>
			<stop  offset="1" style="stop-color:#0066FF"/>
		</linearGradient>
		<path class="st6" d="M50.4,81.5V51.9h13.4c7.4,0,13.4,6,13.4,13.4v2.7c0,7.4-6,13.4-13.4,13.4H50.4z"/>
		<g>
			<path class="st3" d="M144.3,43.9h-9.7v23.6h9.7c5.9,0,10.7-4.8,10.7-10.7v-2.1C155,48.7,150.2,43.9,144.3,43.9z M150.7,56.8
				c0,3.6-2.9,6.4-6.4,6.4h-5.4v-15h5.4c3.6,0,6.4,2.9,6.4,6.4V56.8z"/>
			<path class="st3" d="M94.9,43.9h-9.7v23.6h9.7c5.9,0,10.7-4.8,10.7-10.7v-2.1C105.6,48.7,100.8,43.9,94.9,43.9z M101.3,56.8
				c0,3.6-2.9,6.4-6.4,6.4h-5.4v-15h5.4c3.6,0,6.4,2.9,6.4,6.4V56.8z"/>
			<path class="st3" d="M123.3,43.9h-13.4v9.7h4.3v-5.4h9.1c1.5,0,2.7,1.2,2.7,2.7c0,1.5-1.2,2.7-2.7,2.7h-9.1v4.3h9.1
				c1.5,0,2.7,1.2,2.7,2.7s-1.2,2.7-2.7,2.7h-9.1v-5.4h-4.3v9.7h13.4c3.8,0,7-3.1,7-7c0-1.9-0.7-3.6-1.9-4.8c1.2-1.3,1.9-3,1.9-4.8
				C130.3,47,127.2,43.9,123.3,43.9z"/>
		</g>
		<g>
			<path class="st3" d="M85.2,71.3h1.9c1.7,0,2.6,0.9,2.6,2.4c0,1.4-1,2.4-2.6,2.4h-1.9V71.3z M85.9,71.9v3.6h1.3
				c1.2,0,1.9-0.8,1.9-1.8c0-1.1-0.6-1.8-1.9-1.8H85.9z"/>
			<path class="st3" d="M90.3,73.7c0-1.4,0.9-2.4,2.5-2.4c1.7,0,2.5,1,2.5,2.4c0,1.4-0.9,2.4-2.5,2.4C91.2,76.1,90.3,75.1,90.3,73.7
				z M94.7,73.7c0-1.1-0.6-1.9-1.8-1.9c-1.2,0-1.8,0.8-1.8,1.9c0,1.1,0.6,1.9,1.8,1.9C94.1,75.6,94.7,74.8,94.7,73.7z"/>
			<path class="st3" d="M96.3,71.3h0.7l3.3,3.9v-3.9h0.7v4.7h-0.7L97,72.2v3.9h-0.7V71.3z"/>
			<path class="st3" d="M102,73.7c0-1.5,1-2.4,2.7-2.4c0.6,0,1.3,0.1,1.7,0.3v0.6c-0.5-0.2-1.1-0.3-1.6-0.3c-1.4,0-2.1,0.6-2.1,1.9
				c0,1.4,0.9,1.9,2.1,1.9c0.7,0,1.1-0.1,1.4-0.2v-1.6h0.7v2.1c-0.5,0.2-1.2,0.3-2.1,0.3C103,76.1,102,75.3,102,73.7z"/>
			<path class="st3" d="M111.5,74h-3v2.1h-0.7v-4.7h0.7v2.1h3v-2.1h0.7v4.7h-0.7V74z"/>
			<path class="st3" d="M113.3,74.3v-2.9h0.7v2.9c0,0.9,0.5,1.4,1.5,1.4c1,0,1.5-0.5,1.5-1.4v-2.9h0.7v2.9c0,1.2-0.9,1.9-2.2,1.9
				C114.2,76.1,113.3,75.4,113.3,74.3z"/>
			<path class="st3" d="M120.7,71.3h1.8c1.3,0,2,0.5,2,1.3c0,0.5-0.3,0.8-0.8,1c0.6,0.2,1,0.5,1,1.1c0,0.9-0.7,1.3-2,1.3h-2V71.3z
				 M121.3,71.9v1.6h1c1,0,1.5-0.2,1.5-0.8s-0.5-0.8-1.5-0.8H121.3z M121.3,74v1.6h1.2c1,0,1.5-0.2,1.5-0.8s-0.5-0.8-1.5-0.8H121.3z
				"/>
			<path class="st3" d="M125.4,71.3h2.4v0.5H127v3.6h0.9v0.5h-2.4v-0.5h0.9v-3.6h-0.9V71.3z"/>
			<path class="st3" d="M128.4,73.7c0-1.5,1-2.4,2.7-2.4c0.6,0,1.3,0.1,1.7,0.3v0.6c-0.5-0.2-1.1-0.3-1.6-0.3
				c-1.4,0-2.1,0.6-2.1,1.9c0,1.4,0.9,1.9,2.1,1.9c0.7,0,1.1-0.1,1.4-0.2v-1.6h0.7v2.1c-0.5,0.2-1.2,0.3-2.1,0.3
				C129.4,76.1,128.4,75.3,128.4,73.7z"/>
			<path class="st3" d="M136.1,71.3h1.9c1.7,0,2.6,0.9,2.6,2.4c0,1.4-1,2.4-2.6,2.4h-1.9V71.3z M136.7,71.9v3.6h1.3
				c1.2,0,1.9-0.8,1.9-1.8c0-1.1-0.6-1.8-1.9-1.8H136.7z"/>
			<path class="st3" d="M143,71.3h0.8l2.4,4.7h-0.8l-0.6-1.2H142l-0.6,1.2h-0.7L143,71.3z M142.2,74.4h2.4l-1.2-2.4L142.2,74.4z"/>
			<path class="st3" d="M145.6,71.3h4.5v0.5h-1.9v4.2h-0.7v-4.2h-1.9V71.3z"/>
			<path class="st3" d="M151.9,71.3h0.8l2.4,4.7h-0.8l-0.6-1.2h-2.8l-0.6,1.2h-0.7L151.9,71.3z M151.1,74.4h2.4l-1.2-2.4L151.1,74.4
				z"/>
		</g>
	</g>
</g>
</svg>
