<?xml version="1.0" encoding="utf-8"?>
<!-- Generator: Adobe Illustrator 21.0.0, SVG Export Plug-In . SVG Version: 6.00 Build 0)  -->
<svg version="1.1" xmlns="http://www.w3.org/2000/svg" xmlns:xlink="http://www.w3.org/1999/xlink" x="0px" y="0px"
	 viewBox="0 0 80 80" style="enable-background:new 0 0 80 80;" xml:space="preserve">
<style type="text/css">
	.st0{display:none;}
	.st1{display:inline;}
	.st2{fill:#DDDDDD;}
	.st3{fill:url(#SVGID_1_);}
	.st4{opacity:0.2;}
	.st5{fill:#FFFFFF;}
	.st6{opacity:0.2;fill:none;stroke:#FFFFFF;stroke-miterlimit:10;}
</style>
<g id="图层_1" class="st0">
	<g class="st1">
		<path class="st2" d="M79,1.8v78H1v-78H79 M80,0.8H0v80h80V0.8L80,0.8z"/>
	</g>
</g>
<g id="图层_2">
	<linearGradient id="SVGID_1_" gradientUnits="userSpaceOnUse" x1="40" y1="74.25" x2="40" y2="8.75">
		<stop  offset="0" style="stop-color:#B1B7C4"/>
		<stop  offset="1" style="stop-color:#CFD4E2"/>
	</linearGradient>
	<path class="st3" d="M52,48.8H28c-4.4,0-8-3.6-8-8v-24c0-4.4,3.6-8,8-8h24c4.4,0,8,3.6,8,8v24C60,45.2,56.4,48.8,52,48.8z
		 M26.5,63.8v-8c0-1.1-0.9-2-2-2h-8c-1.1,0-2,0.9-2,2v8c0,1.1,0.9,2,2,2h8C25.6,65.8,26.5,64.9,26.5,63.8z M39.5,63.8v-8
		c0-1.1-0.9-2-2-2h-8c-1.1,0-2,0.9-2,2v8c0,1.1,0.9,2,2,2h8C38.6,65.8,39.5,64.9,39.5,63.8z M52.5,63.8v-8c0-1.1-0.9-2-2-2h-8
		c-1.1,0-2,0.9-2,2v8c0,1.1,0.9,2,2,2h8C51.6,65.8,52.5,64.9,52.5,63.8z M65.5,63.8v-8c0-1.1-0.9-2-2-2h-8c-1.1,0-2,0.9-2,2v8
		c0,1.1,0.9,2,2,2h8C64.6,65.8,65.5,64.9,65.5,63.8z M26.5,73.3v-3.5c0-0.6-0.4-1-1-1H22c-0.6,0-1,0.4-1,1v3.5c0,0.6,0.4,1,1,1h3.5
		C26.1,74.3,26.5,73.8,26.5,73.3z M33,73.3v-3.5c0-0.6-0.4-1-1-1h-3.5c-0.6,0-1,0.4-1,1v3.5c0,0.6,0.4,1,1,1H32
		C32.6,74.3,33,73.8,33,73.3z M39.5,73.3v-3.5c0-0.6-0.4-1-1-1H35c-0.6,0-1,0.4-1,1v3.5c0,0.6,0.4,1,1,1h3.5
		C39.1,74.3,39.5,73.8,39.5,73.3z M46,73.3v-3.5c0-0.6-0.4-1-1-1h-3.5c-0.6,0-1,0.4-1,1v3.5c0,0.6,0.4,1,1,1H45
		C45.6,74.3,46,73.8,46,73.3z M52.5,73.3v-3.5c0-0.6-0.4-1-1-1H48c-0.6,0-1,0.4-1,1v3.5c0,0.6,0.4,1,1,1h3.5
		C52.1,74.3,52.5,73.8,52.5,73.3z M59,73.3v-3.5c0-0.6-0.4-1-1-1h-3.5c-0.6,0-1,0.4-1,1v3.5c0,0.6,0.4,1,1,1H58
		C58.6,74.3,59,73.8,59,73.3z"/>
	<g class="st4">
		<path class="st5" d="M40,9.8c10.5,0,19,8.5,19,19s-8.5,19-19,19s-19-8.5-19-19S29.5,9.8,40,9.8 M40,8.8c-11,0-20,9-20,20
			s9,20,20,20s20-9,20-20S51,8.8,40,8.8L40,8.8z"/>
	</g>
	<g class="st4">
		<path class="st5" d="M40,17.8c6.1,0,11,4.9,11,11s-4.9,11-11,11s-11-4.9-11-11S33.9,17.8,40,17.8 M40,16.8c-6.6,0-12,5.4-12,12
			s5.4,12,12,12s12-5.4,12-12S46.6,16.8,40,16.8L40,16.8z"/>
	</g>
	<g class="st4">
		<path class="st5" d="M40,21.8c3.9,0,7,3.1,7,7s-3.1,7-7,7s-7-3.1-7-7S36.1,21.8,40,21.8 M40,20.8c-4.4,0-8,3.6-8,8s3.6,8,8,8
			s8-3.6,8-8S44.4,20.8,40,20.8L40,20.8z"/>
	</g>
	<line class="st6" x1="20" y1="28.8" x2="60" y2="28.8"/>
	<line class="st6" x1="40" y1="8.8" x2="40" y2="48.8"/>
	<g class="st4">
		<path class="st5" d="M55,13.8v30H25v-30H55 M56,12.8H24v32h32V12.8L56,12.8z"/>
	</g>
	<line class="st6" x1="58" y1="10.8" x2="22" y2="46.8"/>
	<line class="st6" x1="22" y1="10.8" x2="58" y2="46.8"/>
</g>
</svg>
