<?xml version="1.0" encoding="utf-8"?>
<!-- Generator: Adobe Illustrator 21.0.0, SVG Export Plug-In . SVG Version: 6.00 Build 0)  -->
<svg version="1.1" xmlns="http://www.w3.org/2000/svg" xmlns:xlink="http://www.w3.org/1999/xlink" x="0px" y="0px"
	 viewBox="0 0 120 80" style="enable-background:new 0 0 120 80;" xml:space="preserve">
<style type="text/css">
	.st0{display:none;}
	.st1{display:inline;}
	.st2{fill:#DDDDDD;}
	.st3{fill:url(#SVGID_1_);}
	.st4{opacity:0.2;}
	.st5{fill:#FFFFFF;}
	.st6{opacity:0.2;fill:none;stroke:#FFFFFF;stroke-miterlimit:10;}
</style>
<g id="图层_1" class="st0">
	<g class="st1">
		<path class="st2" d="M119,1v78H1V1H119 M120,0H0v80h120V0L120,0z"/>
	</g>
</g>
<g id="图层_2">
	<linearGradient id="SVGID_1_" gradientUnits="userSpaceOnUse" x1="62" y1="56" x2="62" y2="24">
		<stop  offset="0" style="stop-color:#B1B7C4"/>
		<stop  offset="1" style="stop-color:#CFD4E2"/>
	</linearGradient>
	<path class="st3" d="M39.6,56H20.4c-3.5,0-6.4-2.9-6.4-6.4V30.4c0-3.5,2.9-6.4,6.4-6.4h19.2c3.5,0,6.4,2.9,6.4,6.4v19.2
		C46,53.1,43.1,56,39.6,56z M65,40.3v-10c0-1.1-0.9-2-2-2H53c-1.1,0-2,0.9-2,2v10c0,1.1,0.9,2,2,2h10C64.1,42.3,65,41.4,65,40.3z
		 M80,40.3v-10c0-1.1-0.9-2-2-2H68c-1.1,0-2,0.9-2,2v10c0,1.1,0.9,2,2,2h10C79.1,42.3,80,41.4,80,40.3z M95,40.3v-10
		c0-1.1-0.9-2-2-2H83c-1.1,0-2,0.9-2,2v10c0,1.1,0.9,2,2,2h10C94.1,42.3,95,41.4,95,40.3z M110,40.3v-10c0-1.1-0.9-2-2-2H98
		c-1.1,0-2,0.9-2,2v10c0,1.1,0.9,2,2,2h10C109.1,42.3,110,41.4,110,40.3z M57.5,50.8v-4.5c0-0.6-0.4-1-1-1H52c-0.6,0-1,0.4-1,1v4.5
		c0,0.6,0.4,1,1,1h4.5C57.1,51.8,57.5,51.3,57.5,50.8z M65,50.8v-4.5c0-0.6-0.4-1-1-1h-4.5c-0.6,0-1,0.4-1,1v4.5c0,0.6,0.4,1,1,1H64
		C64.6,51.8,65,51.3,65,50.8z M72.5,50.8v-4.5c0-0.6-0.4-1-1-1H67c-0.6,0-1,0.4-1,1v4.5c0,0.6,0.4,1,1,1h4.5
		C72.1,51.8,72.5,51.3,72.5,50.8z M80,50.8v-4.5c0-0.6-0.4-1-1-1h-4.5c-0.6,0-1,0.4-1,1v4.5c0,0.6,0.4,1,1,1H79
		C79.6,51.8,80,51.3,80,50.8z M87.5,50.8v-4.5c0-0.6-0.4-1-1-1H82c-0.6,0-1,0.4-1,1v4.5c0,0.6,0.4,1,1,1h4.5
		C87.1,51.8,87.5,51.3,87.5,50.8z M95,50.8v-4.5c0-0.6-0.4-1-1-1h-4.5c-0.6,0-1,0.4-1,1v4.5c0,0.6,0.4,1,1,1H94
		C94.6,51.8,95,51.3,95,50.8z"/>
	<g class="st4">
		<path class="st5" d="M30,25c8.3,0,15,6.7,15,15s-6.7,15-15,15s-15-6.7-15-15S21.7,25,30,25 M30,24c-8.8,0-16,7.2-16,16
			s7.2,16,16,16s16-7.2,16-16S38.8,24,30,24L30,24z"/>
	</g>
	<g class="st4">
		<path class="st5" d="M30,31.4c4.7,0,8.6,3.9,8.6,8.6s-3.9,8.6-8.6,8.6s-8.6-3.9-8.6-8.6S25.3,31.4,30,31.4 M30,30.4
			c-5.3,0-9.6,4.3-9.6,9.6s4.3,9.6,9.6,9.6s9.6-4.3,9.6-9.6S35.3,30.4,30,30.4L30,30.4z"/>
	</g>
	<g class="st4">
		<path class="st5" d="M30,34.6c3,0,5.4,2.4,5.4,5.4S33,45.4,30,45.4S24.6,43,24.6,40S27,34.6,30,34.6 M30,33.6
			c-3.5,0-6.4,2.9-6.4,6.4s2.9,6.4,6.4,6.4s6.4-2.9,6.4-6.4S33.5,33.6,30,33.6L30,33.6z"/>
	</g>
	<line class="st6" x1="14" y1="40" x2="46" y2="40"/>
	<line class="st6" x1="30" y1="24" x2="30" y2="56"/>
	<g class="st4">
		<path class="st5" d="M41.8,28.2v23.6H18.2V28.2H41.8 M42.8,27.2H17.2v25.6h25.6V27.2L42.8,27.2z"/>
	</g>
	<line class="st6" x1="44.4" y1="25.6" x2="15.6" y2="54.4"/>
	<line class="st6" x1="15.6" y1="25.6" x2="44.4" y2="54.4"/>
</g>
</svg>
