<?xml version="1.0" encoding="utf-8"?>
<!-- Generator: Adobe Illustrator 21.0.0, SVG Export Plug-In . SVG Version: 6.00 Build 0)  -->
<svg version="1.1" id="图层_2" xmlns="http://www.w3.org/2000/svg" xmlns:xlink="http://www.w3.org/1999/xlink" x="0px" y="0px"
	 viewBox="0 0 120 36" style="enable-background:new 0 0 120 36;" xml:space="preserve">
<style type="text/css">
	.st0{fill:#1177EE;}
	.st1{fill:#4D545B;}
</style>
<polygon class="st0" points="12,31.5 12,10.5 6,7 0,10.5 0,31.5 6,35 "/>
<polygon class="st0" points="18.5,-0.2 12,3.5 12,6 25,13.5 25,31.5 31,35 37,31.5 37,10.5 "/>
<g>
	<path class="st1" d="M53,13.1v-1.3h-4.1v8.5c0,4.8-0.7,8.7-2,11.6l-1.8-1.6c1-2.4,1.6-5.7,1.6-9.9V9.9H56c-0.2-0.5-0.4-0.9-0.7-1.2
		l2.5-0.4c0.2,0.5,0.4,1,0.7,1.6h9.3v1.9h-4.2v1.3h3.6v1.7h-2.8c0.8,0.8,2,1.6,3.6,2.3l-1.4,1.7c-1.4-1-2.5-2.1-3.2-3.3V19h-1.9
		v-3.4c-0.7,1.3-1.7,2.4-2.9,3.2l-1-1.7c1.3-0.6,2.3-1.4,3-2.3h-2v-1.7h2.9v-1.3H55v1.3h2.9v1.7H55c0.9,0.5,1.8,1,2.7,1.5l-1.1,1.5
		c-0.6-0.7-1.2-1.2-1.6-1.7V19h-2v-2.8c-0.8,1.1-1.7,1.9-2.7,2.7l-1.1-1.7c1.4-0.7,2.4-1.5,3.3-2.3h-2.7v-1.7H53z M56,19.6
		c0.2-0.5,0.3-0.9,0.4-1.4l2,0.3c-0.1,0.4-0.3,0.8-0.4,1.1h7.9v6.6h-2.5c-0.3,0.7-0.6,1.3-1,1.8c0.6-0.1,1.2-0.2,1.8-0.4l-0.5-0.8
		l1.1-0.3c0.6,0.8,1,1.6,1.3,2.2l-1.2,0.4c-0.1-0.3-0.2-0.5-0.3-0.7c-1.1,0.3-2.2,0.6-3.3,0.7l-0.4-1c0.4-0.5,0.8-1.1,1.1-1.9h-1.8
		v2.5c0,0.6,0.3,0.9,1,0.9h3.7c0.5,0,0.9-0.1,1.1-0.3c0.3-0.2,0.5-0.9,0.6-2l1.9,0.6c-0.2,1.7-0.6,2.7-1.1,3
		c-0.5,0.3-1.2,0.5-2.2,0.5h-4.7c-1.7,0-2.5-0.7-2.5-2.2v-2.5c-0.6,1-1.3,1.9-2.3,2.6c-1.4,1-3.4,1.8-6.1,2.5l-1.2-1.9
		c2.4-0.4,4.3-1,5.6-1.8c0.8-0.5,1.4-1.1,1.9-1.8h-5.2v-6.6H56z M57.1,22.2l0.1-1H53v1H57.1z M56.9,23.6h-4v1.1h3.7
		C56.8,24.4,56.9,24,56.9,23.6z M63.7,23.6h-4.6c-0.1,0.4-0.2,0.8-0.2,1.1h4.9V23.6z M59.3,22.2h4.5v-1h-4.4L59.3,22.2z"/>
	<path class="st1" d="M75,16v10.5c0.6-0.6,1.3-1.3,2-2l0.6,2.6c-1.5,1.5-3,2.8-4.6,3.9L72,28.8c0.4-0.4,0.6-0.8,0.6-1.3v-9.2h-3.5
		V16H75z M76.7,12.4l-1.6,1.7c-1-1.2-2.4-2.4-4.2-3.7l1.7-1.6C74.2,9.9,75.6,11.2,76.7,12.4z M85.8,31.6l-0.6-2.3l2.9,0.1
		c0.8,0,1.1-0.4,1.1-1.2V11.6H77.4V9.3h14.1v19.5c0,1.9-1,2.8-3,2.8H85.8z M87.8,14v2.3H78V14H87.8z M87,18.6v8.3h-8.3v-8.3H87z
		 M84.8,20.6H81v4.1h3.7V20.6z"/>
	<path class="st1" d="M99.5,9.7v21.4h-3.2V9.7H99.5z"/>
	<path class="st1" d="M112.4,9.7c5.1,0,7.6,2.2,7.6,6.5c0,4.4-2.6,6.6-7.7,6.6h-5.5v8.3h-3.3V9.7H112.4z M106.7,20h5.3
		c1.6,0,2.8-0.3,3.5-0.9c0.7-0.6,1.1-1.6,1.1-2.9c0-1.3-0.4-2.3-1.1-2.8c-0.8-0.6-1.9-0.9-3.5-0.9h-5.3V20z"/>
</g>
</svg>
