<?xml version="1.0" encoding="utf-8"?>
<!-- Generator: Adobe Illustrator 21.0.0, SVG Export Plug-In . SVG Version: 6.00 Build 0)  -->
<svg version="1.1" id="图层_2" xmlns="http://www.w3.org/2000/svg" xmlns:xlink="http://www.w3.org/1999/xlink" x="0px" y="0px"
	 viewBox="0 0 228 40" style="enable-background:new 0 0 228 40;" xml:space="preserve">
<style type="text/css">
	.st0{fill:#9CA3AF;}
</style>
<g>
	<g>
		<path class="st0" d="M98,13.1h-1.3v3.3H91v6.8h1.2v-0.8h4.5v5.6H98v-5.6h4.6v0.8h1.2v-6.8H98V13.1z M96.7,21.2h-4.5v-3.8h4.5V21.2
			z M102.6,17.4v3.8H98v-3.8H102.6z"/>
		<polygon class="st0" points="117.8,23.6 115.1,23.6 115.1,21.1 117.4,21.1 117.4,20.1 115.1,20.1 115.1,17.8 117.6,17.8 
			117.6,16.9 111.4,16.9 111.4,17.8 114,17.8 114,20.1 111.7,20.1 111.7,21.1 114,21.1 114,23.6 111.3,23.6 111.3,24.5 117.8,24.5 
					"/>
		<path class="st0" d="M112.7,15.1c-0.5-0.6-1-1.3-1.6-1.9l-0.8,0.6c0.6,0.7,1.1,1.4,1.5,2L112.7,15.1z"/>
		<path class="st0" d="M113.4,15.1h5.1v10.6c0,0.6-0.3,0.9-1,0.9c-0.5,0-1.1,0-1.9-0.1c0.1,0.4,0.2,0.8,0.2,1.1c0.8,0,1.5,0,2,0
			c1.2,0,1.8-0.6,1.8-1.7V14.1h-6.2V15.1z"/>
		<path class="st0" d="M105.2,18.1c0.7,0.5,1.5,1.2,2.5,2c0.2-0.3,0.5-0.6,0.9-1c-0.9-0.7-1.7-1.3-2.6-1.9L105.2,18.1z"/>
		<path class="st0" d="M105.6,27.4l1.3,0.4c0.3-1.4,0.8-3.3,1.4-5.7c-0.4-0.1-0.8-0.3-1.2-0.5C106.7,23.7,106.2,25.6,105.6,27.4z"/>
		<path class="st0" d="M105.8,14.2c0.6,0.5,1.4,1.2,2.5,2.2c0.3-0.3,0.6-0.6,0.9-0.9c-1.1-0.9-1.9-1.6-2.6-2.1L105.8,14.2z"/>
		<rect x="109.5" y="15.8" class="st0" width="1.1" height="12.1"/>
		<path class="st0" d="M123,16.2l-0.8,0.7c0.6,0.6,1.2,1.2,1.6,1.8l0.9-0.8C124.2,17.4,123.7,16.8,123,16.2z"/>
		<path class="st0" d="M122.8,27.8h1.1v-0.7h8.1v0.7h1.1v-6.6h-10.4V27.8z M123.9,22.2h8.1v1.5h-8.1V22.2z M123.9,24.7h8.1v1.5h-8.1
			V24.7z"/>
		<path class="st0" d="M130.3,15.9h4.6v-1H131c0.3-0.4,0.6-0.8,0.9-1.3l-1.1-0.6c-0.4,0.7-0.8,1.3-1.2,1.9h-3.8l0.6-0.4
			c-0.4-0.5-0.8-1-1.3-1.4l-0.9,0.6c0.4,0.4,0.7,0.9,1,1.3h-4.1v1h4.6V19h-5v1h14.6v-1h-5V15.9z M129.2,19h-2.3v-3.1h2.3V19z"/>
		<path class="st0" d="M132,18.7c0.6-0.6,1.1-1.2,1.7-1.9l-1-0.7c-0.5,0.7-1,1.3-1.6,1.9L132,18.7z"/>
		<path class="st0" d="M139.7,16.2c-0.6-0.9-1.4-1.8-2.3-2.9l-0.9,0.7c0.8,1,1.5,2,2.2,3L139.7,16.2z"/>
		<path class="st0" d="M142.2,26.4c-1.5,0-2.5-0.5-3.3-1.4v-6.5H136v1.1h1.7v5.2c-0.6,0.5-1.2,1.1-1.9,1.6l0.6,1.3
			c0.9-1,1.5-1.7,1.8-1.9c0.8,1.1,2,1.7,3.7,1.7c2.8,0,5.6,0,8.3,0c0.2-0.4,0.3-0.8,0.5-1.2C147.8,26.4,144.9,26.4,142.2,26.4z"/>
		<path class="st0" d="M139.8,24.7c0.3,0.3,0.6,0.6,0.8,1c2-1.1,3.4-2.7,4.2-4.7c1.5,1.4,3,2.8,4.3,4.4l0.9-1
			c-1.5-1.6-3.2-3.1-4.9-4.4c0.2-0.6,0.3-1.3,0.3-2.1h4.7v-1.1h-4.7v-3.5h-1.2v3.5h-4.1v1.1h4.1C144,20.9,142.5,23.2,139.8,24.7z"/>
		<path class="st0" d="M156.2,14.3c-1.8,2-2.7,4.4-2.7,7.1c0,2.8,0.9,5.1,2.7,7.1h1.3c-1.8-2-2.6-4.4-2.6-7.1c0-2.7,0.9-5.1,2.7-7.1
			H156.2z"/>
		<path class="st0" d="M161.3,17v5.3h1v-0.6h10.9v-0.9h-5.7v-1.1h5v-0.9h-5v-1.1h5V17h-5v-1.1h5.7V15h-5.7l0.7-0.4
			c-0.3-0.5-0.7-1-1.2-1.5l-0.9,0.5c0.4,0.5,0.7,1,1,1.4h-4.2c0.3-0.4,0.6-0.9,0.9-1.3l-1-0.5c-1,1.8-2.2,3.3-3.7,4.5
			c0.3,0.4,0.6,0.7,0.7,1C160.3,18.2,160.8,17.6,161.3,17z M162.4,15.9h4.1V17h-4.1V15.9z M162.4,17.8h4.1v1.1h-4.1V17.8z
			 M162.4,19.8h4.1v1.1h-4.1V19.8z"/>
		<path class="st0" d="M173.5,24.1v-1H167v-1h-1v1h-6.4v1h5.2c-1.7,1.3-3.6,2.2-5.8,2.7c0.3,0.3,0.5,0.6,0.7,0.9
			c2.4-0.7,4.5-1.9,6.3-3.4v3.5h1v-3.5c1.8,1.5,3.8,2.6,6.3,3.3c0.2-0.3,0.4-0.7,0.7-1.1c-2.1-0.4-4.1-1.3-5.8-2.5H173.5z"/>
		<path class="st0" d="M183.8,15.4h-1.1v2.2h-5.6v1h4.9c-1.3,1.9-3.1,3.5-5.4,4.7c0.3,0.3,0.6,0.7,0.8,1c2.4-1.5,4.2-3.1,5.4-5v3.5
			c0,0.9-0.4,1.4-1.2,1.4c-0.5,0-1,0-1.7-0.1c0.1,0.4,0.2,0.8,0.2,1.2c0.6,0,1.2,0,1.7,0c1.4,0,2.1-0.7,2.1-2.2v-4.6h2.9v-1h-2.9
			V15.4z"/>
		<path class="st0" d="M175.3,27.9h1.1v-0.7h10.8v0.7h1.1v-14h-13.1V27.9z M176.4,14.9h10.8v11.1h-10.8V14.9z"/>
		<path class="st0" d="M191.1,14.3c1.8,2,2.6,4.4,2.6,7.1c0,2.7-0.9,5.1-2.7,7.1h1.3c1.8-2,2.7-4.3,2.7-7.1c0-2.8-0.9-5.1-2.7-7.1
			H191.1z"/>
		<path class="st0" d="M206.8,22.7c0.7,1,1.3,1.9,1.9,2.7c-2.6,0.1-4.9,0.2-7,0.3c1.4-1.8,2.7-3.8,4-6l-1.3-0.6
			c-1.4,2.6-2.6,4.6-3.8,6c-0.4,0.4-0.8,0.6-1.2,0.8l0.7,1.3c0.5-0.1,1-0.2,1.4-0.3c2.1-0.2,4.7-0.3,8-0.5c0.3,0.5,0.6,1,0.9,1.4
			l1.1-0.7c-1-1.5-2.2-3.2-3.6-5.1L206.8,22.7z"/>
		<path class="st0" d="M204.2,14.3l-1.2-0.5c-1.1,2.5-2.8,4.6-5,6.4c0.4,0.3,0.7,0.6,1,1C201.2,19.4,202.9,17.1,204.2,14.3z"/>
		<path class="st0" d="M207.6,13.6l-1.1,0.4c1,2.7,2.8,5,5.6,6.9c0.4-0.5,0.7-0.9,0.9-1.2C210.4,18.2,208.6,16.2,207.6,13.6z"/>
		<path class="st0" d="M214.5,13.9V15h11.7v10.3c0,0.8-0.3,1.2-1,1.2c-0.7,0-1.6,0-2.9-0.1c0.1,0.5,0.2,0.9,0.3,1.3
			c1.2,0,2.2,0,2.9,0c1.3,0,1.9-0.7,1.9-2.1V13.9H214.5z"/>
		<path class="st0" d="M223,19.7h-7.9v6.4h1.2V25h6.7V19.7z M221.8,23.9h-5.5v-3.1h5.5V23.9z"/>
		<rect x="213.6" y="16.8" class="st0" width="11.4" height="1.1"/>
	</g>
	<g>
		<path class="st0" d="M17.7,35.8c-10.9,0-18.1-6.5-16.8-13.1c0,0,1.3-4.1,5.3-4c0,0-1.9-2.4,0-7.4c0,0-2.4,4.5-5.9,4.4
			c0,0,2.1,3,0.5,5.8c-1.6,2.8-2.7,15.5,15,18.1c17.7,2.6,30-10,30-10H36C36,29.6,28.6,35.8,17.7,35.8z"/>
		<path class="st0" d="M45.3,12h7.6c0,0-4.4-12-20.9-12C17.2,0,8.8,9.6,8.8,9.6S35.5-8.2,45.3,12z"/>
	</g>
	<g>
		<path class="st0" d="M44.9,16.7c0-3.2-2.7-3.9-2.7-3.9h-14L24,26.5H13l14-13.6H9.1l0,1.8l9,0l1.1,0L4.3,28.6h24.8l4-13.9h2.6
			c0.8,0,3.3,0.2,3.3,2.5c0,2.3-4.2,3.5-4.2,3.5l-2.4,0.1v0.6l3,7.3H42l-3.5-7C42.8,21.7,44.9,19.9,44.9,16.7z"/>
		<path class="st0" d="M77.1,12.9H66.1l-4.8,15.7h13.3c0,0,10-2.7,10-9.4C84.6,12.4,77.1,12.9,77.1,12.9z M73.3,26.6l-0.2,0.1
			l-0.3,0.1h-4.9l3.4-12.1H75c0.6,0,3.9,1.2,3.9,4.8C78.9,23.1,73.3,26.6,73.3,26.6z"/>
		<path class="st0" d="M63.5,16.5c0-3-1.5-3.7-5.7-3.7c-4.1,0.1-10.6,0-10.6,0l-4.4,15.7h6l2.1-6.6l8.6-0.2
			C59.5,21.8,63.5,19.5,63.5,16.5z M55.7,20.1l-0.1,0l-0.1,0h-3.9l1.6-5.5h2.7c0,0,2.5,0.2,2.5,2.1S55.7,20.1,55.7,20.1z"/>
	</g>
	<g>
		<path class="st0" d="M50.2,31.7c0.2-0.6,0.3-1.2,0.5-1.9l-0.8,0c-0.1,0.6-0.3,1.2-0.4,1.9l-3.2,0c-0.1,0.4-0.2,1.1-0.5,2
			c-0.2,0.9-0.3,0.9-0.4,1.3l0.8,0l0,0l2.4,0l-0.4,1.6c-0.1,0.6-0.3,1.1-0.5,1.5h0.9c0.2-0.8,0.3-1.3,0.4-1.6l0.4-1.5l2.4,0l0,0h0.8
			c0.1-0.4,0.1-0.5,0.3-1.3c0.2-0.8,0.4-1.5,0.5-2L50.2,31.7z M48.7,34.3l-2.4,0l0.5-2.1l2.4,0L48.7,34.3z M51.9,34.3h-2.4l0.5-2.1
			l2.4,0L51.9,34.3z"/>
		<path class="st0" d="M55.5,34.6c-0.2,0.3-0.5,0.8-1,1.5c-0.5,0.7-0.9,1.2-1.2,1.5c0.3,0.1,0.6,0.3,0.8,0.5c0.2-0.3,0.5-0.9,1-1.6
			c0.5-0.7,0.8-1.2,1-1.4C55.9,34.9,55.7,34.8,55.5,34.6z"/>
		<path class="st0" d="M58.3,31.7h-0.8c-0.1,0.4-0.2,0.7-0.3,1.2l-1,4.1c-0.1,0.3-0.2,0.7-0.3,1.2l0.8,0c0.1-0.5,0.2-0.9,0.3-1.2
			l1-4.1C58,32.5,58.2,32.1,58.3,31.7z"/>
		<path class="st0" d="M61.1,35.7c-0.3,0-0.7,0-1.4,0l0.3-1.3c0.4,0,0.7,0,1,0.1l0.2-0.6c-0.3,0-0.7,0-1,0l0.3-1.2
			c0.5,0,0.9,0,1.2,0l0.2-0.6c-0.3,0-0.6,0-1.1,0l-0.8,0c-0.4,0-0.8,0-1.2,0l-0.2,0.6c0.4,0,0.8,0,1.3,0l-0.3,1.2
			c-0.5,0-0.8,0-1.1,0l-0.2,0.6c0.3,0,0.7-0.1,1.1-0.1l-0.3,1.3c-0.6,0-1.1,0-1.4,0l-0.2,0.6c0.3,0,0.6,0,1.1,0l1.2,0
			c0.5,0,0.9,0,1.1,0L61.1,35.7z"/>
		<path class="st0" d="M57.3,31.1c-0.2-0.4-0.5-0.7-0.9-1.1c-0.2,0.1-0.4,0.3-0.7,0.4c0.3,0.4,0.6,0.7,0.8,1.2
			C56.8,31.4,57.1,31.3,57.3,31.1z"/>
		<path class="st0" d="M59.5,31c-0.1-0.4-0.3-0.8-0.5-1.2c-0.3,0.1-0.5,0.3-0.7,0.4c0.2,0.4,0.3,0.8,0.4,1.3
			C59,31.3,59.3,31.1,59.5,31z"/>
		<path class="st0" d="M56.5,33.2c-0.4-0.4-0.8-0.7-1.3-1.1c-0.2,0.2-0.4,0.4-0.6,0.5c0.5,0.4,0.9,0.8,1.2,1.2
			C56,33.6,56.2,33.4,56.5,33.2z"/>
		<path class="st0" d="M60.3,30.4l-0.2,0.7c0.4,0,0.8,0,1.1,0l1.5,0L61.3,37c-0.1,0.2-0.2,0.3-0.3,0.4c-0.2,0-0.5,0-0.9,0
			c0.1,0.3,0.2,0.6,0.2,0.8c0.6-0.1,0.9-0.2,1.2-0.3c0.2-0.1,0.4-0.3,0.4-0.6l1.4-5.5c0.1-0.5,0.3-1,0.4-1.4l-2.2,0
			C61.1,30.5,60.7,30.5,60.3,30.4z"/>
		<path class="st0" d="M70.5,33.6c0.3-0.3,0.5-0.6,0.8-0.9c0.2-0.2,0.4-0.4,0.4-0.4c-0.2-0.1-0.4-0.2-0.6-0.4
			c-0.3,0.4-0.6,0.9-1.1,1.4C70.2,33.4,70.4,33.5,70.5,33.6z"/>
		<path class="st0" d="M66,32c-0.2,0.1-0.4,0.3-0.6,0.4c0.2,0.3,0.3,0.7,0.4,1.2c0.2-0.1,0.4-0.3,0.7-0.4C66.4,32.7,66.2,32.3,66,32
			z"/>
		<path class="st0" d="M64.5,36.8c-0.2,0.6-0.2,0.8-0.4,1.3l0.7,0l4.4,0H70c0.1-0.5,0.1-0.7,0.3-1.4c0.2-0.7,0.3-1.3,0.5-1.8l-5.9,0
			C64.8,35.5,64.7,36.1,64.5,36.8z M65.5,35.4l4.4,0l-0.2,0.7l-4.4,0L65.5,35.4z M65.2,36.8l4.4,0l-0.2,0.7l-4.4,0L65.2,36.8z"/>
		<path class="st0" d="M72.5,33.6c-0.4,0-1.4,0-3.1,0l0.5-1.9c1.3,0,2.1,0,2.5,0l0.2-0.6c-0.4,0-0.7,0-1.9,0
			c0.3-0.6,0.3-0.6,0.4-0.8l-0.8,0c-0.1,0.3,0,0.2-0.3,0.8l-2.3,0c0,0,0.1,0,0.1,0c0.1-0.4,0.1-0.3,0.2-0.8c-0.1,0-0.6,0-0.8,0
			c-0.1,0.3-0.1,0.4-0.2,0.8c-0.9,0-1.1,0-1.7,0L65,31.8c0.6,0,1.4,0,2.5,0l-0.5,1.9c-1.6,0-2.6,0-3,0l-0.2,0.6c0.4,0,0.9,0,1.3,0
			l5.9,0c0.5,0,0.9,0,1.3,0L72.5,33.6z M67.3,31.2l-0.3,0C67.1,31.2,67.2,31.2,67.3,31.2z M68.7,33.7l-1.2,0l0.5-1.8h1.2L68.7,33.7z
			"/>
		<path class="st0" d="M81.7,32.6l0.2-0.7c-0.4,0-1.2,0-2.5,0c0.3-1.1,0.4-1.8,0.5-2.1c-0.1,0-0.3-0.1-0.7-0.1
			c-0.1,0.4-0.3,1.1-0.5,2.2c-1.1,0-1.8,0-2.3,0l-0.2,0.7c0.5,0,1.2,0,2.2,0c-0.3,0.8-0.7,1.5-1.2,2c-0.5,0.6-1.2,1-1.9,1.5
			c0.3,0.1,0.4,0.1,0.8,0.2c0.9-0.6,1.3-0.9,1.8-1.5c0.2-0.3,0.4-0.6,0.6-0.9c-0.1,0.2-0.2,0.4-0.2,0.3c0,1.3,1.1,2,1.8,2.4
			c0.5,0,0.6-0.1,0.9-0.1c-0.8-0.6-2-1.8-2.1-3.3c0,0,0,0.1-0.1,0.1c0.1-0.2,0.2-0.4,0.3-0.6C80.5,32.6,81.3,32.6,81.7,32.6z"/>
		<path class="st0" d="M75.9,31.4c-0.2-0.5-0.5-1-0.9-1.5c-0.2,0.2-0.5,0.3-0.7,0.5c0.3,0.5,0.6,1,0.8,1.6
			C75.4,31.8,75.6,31.6,75.9,31.4z"/>
		<path class="st0" d="M78.3,37.3c-1.2,0-2-0.1-2.5-0.3c-0.5-0.2-0.9-0.5-1.1-0.9l0.5-2.1c0.1-0.3,0.2-0.6,0.3-1.1
			c-0.8,0-1.4,0-1.9,0l-0.2,0.7c0.4,0,0.8,0,1.2,0l-0.7,2.6c-0.7,0.5-1.2,0.9-1.6,1.1c0.2,0.2,0.4,0.4,0.5,0.5
			c0.4-0.3,0.7-0.6,1-0.9c0.3-0.2,0.5-0.2,0.8,0c0.2,0.2,0.4,0.4,0.7,0.5c0.2,0.1,0.6,0.2,1,0.3c0.4,0.1,1,0.1,1.7,0.2
			c0.7,0,2,0.1,3,0.1c0.1-0.2,0-0.5,0.1-0.9C80.4,37.3,79.5,37.3,78.3,37.3z"/>
	</g>
	<g>
		<path class="st0" d="M95.6,36.1c-0.1-0.6-0.4-1-1-1.2v0c0.4-0.1,0.7-0.3,0.9-0.6c0.2-0.3,0.3-0.6,0.3-0.9c0-0.6-0.2-1-0.6-1.3
			c-0.4-0.3-0.9-0.4-1.5-0.4H91V38h0.7v-2.7h1.9c0.4,0,0.7,0.1,0.9,0.2c0.2,0.2,0.4,0.4,0.4,0.8l0.1,0.9c0,0.4,0.1,0.6,0.3,0.9h0.8
			c-0.2-0.2-0.3-0.5-0.3-0.9L95.6,36.1z M93.6,34.6h-1.9v-2.4h1.9c0.5,0,0.9,0.1,1.1,0.3c0.2,0.2,0.3,0.5,0.3,0.9
			c0,0.4-0.1,0.7-0.3,0.9C94.5,34.5,94.1,34.6,93.6,34.6z"/>
		<path class="st0" d="M101.4,35.5c0,0.6-0.1,1.1-0.4,1.4c-0.3,0.3-0.8,0.5-1.4,0.5c-0.6,0-1.1-0.2-1.4-0.5
			c-0.3-0.3-0.4-0.8-0.4-1.4v-3.9H97v3.9c0,0.8,0.2,1.5,0.6,1.9c0.4,0.4,1.1,0.7,1.9,0.7c0.8,0,1.5-0.2,1.9-0.7
			c0.4-0.4,0.6-1.1,0.6-1.9v-3.9h-0.7V35.5z"/>
		<polygon class="st0" points="107.8,36.8 107.8,36.8 104.2,31.6 103.4,31.6 103.4,38 104.1,38 104.1,32.7 104.2,32.7 107.8,38 
			108.5,38 108.5,31.6 107.8,31.6 		"/>
		<path class="st0" d="M114.2,35.5c0,0.6-0.1,1.1-0.4,1.4c-0.3,0.3-0.8,0.5-1.4,0.5c-0.6,0-1.1-0.2-1.4-0.5
			c-0.3-0.3-0.4-0.8-0.4-1.4v-3.9h-0.7v3.9c0,0.8,0.2,1.5,0.6,1.9c0.4,0.4,1.1,0.7,1.9,0.7c0.8,0,1.5-0.2,1.9-0.7
			c0.4-0.4,0.6-1.1,0.6-1.9v-3.9h-0.7V35.5z"/>
		<path class="st0" d="M118.8,31.6h-2.6V38h0.7v-2.6h1.9c1.5,0,2.2-0.6,2.2-1.9C121,32.2,120.3,31.6,118.8,31.6z M119.9,34.4
			c-0.2,0.2-0.6,0.3-1.1,0.3h-1.8v-2.5h1.8c0.5,0,0.9,0.1,1.1,0.3c0.3,0.2,0.4,0.5,0.4,0.9C120.3,33.9,120.2,34.2,119.9,34.4z"/>
		<path class="st0" d="M126.5,31.6H126c-0.3,0.4-0.5,0.9-0.7,1.4c-0.2,0.6-0.3,1.2-0.3,1.8c0,0.6,0.1,1.2,0.3,1.8
			c0.2,0.5,0.4,1,0.7,1.4h0.5c-0.3-0.5-0.5-0.9-0.6-1.4c-0.2-0.6-0.3-1.2-0.3-1.8c0-0.6,0.1-1.2,0.3-1.8
			C126,32.5,126.2,32,126.5,31.6z"/>
		<path class="st0" d="M130.6,32.1c0.6,0,1,0.1,1.4,0.4c0.3,0.3,0.5,0.6,0.6,1.1h0.7c-0.1-0.7-0.4-1.2-0.8-1.6
			c-0.5-0.4-1.1-0.6-1.9-0.6c-0.9,0-1.7,0.3-2.2,1c-0.5,0.6-0.8,1.4-0.8,2.3c0,0.9,0.3,1.7,0.8,2.3c0.6,0.6,1.3,1,2.4,1
			c0.5,0,1-0.1,1.5-0.2c0.4-0.1,0.8-0.3,1.1-0.6v-2.6h-2.7v0.6h2V37c-0.2,0.1-0.5,0.3-0.8,0.4c-0.3,0.1-0.7,0.1-1,0.1
			c-0.8,0-1.5-0.3-1.9-0.7c-0.4-0.5-0.6-1.1-0.6-1.9c0-0.8,0.2-1.5,0.6-2C129.4,32.4,129.9,32.1,130.6,32.1z"/>
		<path class="st0" d="M139.3,36.1c-0.1-0.6-0.4-1-1-1.2v0c0.4-0.1,0.7-0.3,0.9-0.6c0.2-0.3,0.3-0.6,0.3-0.9c0-0.6-0.2-1-0.6-1.3
			c-0.4-0.3-0.9-0.4-1.5-0.4h-2.8V38h0.7v-2.7h1.9c0.4,0,0.7,0.1,0.9,0.2c0.2,0.2,0.4,0.4,0.4,0.8l0.1,0.9c0,0.4,0.1,0.6,0.3,0.9
			h0.8c-0.2-0.2-0.3-0.5-0.3-0.9L139.3,36.1z M137.3,34.6h-1.9v-2.4h1.9c0.5,0,0.9,0.1,1.1,0.3c0.2,0.2,0.3,0.5,0.3,0.9
			c0,0.4-0.1,0.7-0.3,0.9C138.1,34.5,137.7,34.6,137.3,34.6z"/>
		<path class="st0" d="M143.4,31.5c-1,0-1.7,0.3-2.3,1c-0.5,0.6-0.8,1.4-0.8,2.4c0,1,0.3,1.7,0.8,2.3c0.6,0.6,1.3,1,2.3,1
			c1,0,1.7-0.3,2.3-1c0.5-0.6,0.8-1.4,0.8-2.3c0-1-0.3-1.8-0.8-2.4C145.2,31.8,144.4,31.5,143.4,31.5z M145.2,36.7
			c-0.4,0.5-1,0.7-1.7,0.7s-1.3-0.3-1.7-0.8c-0.4-0.5-0.6-1.1-0.6-1.9c0-0.8,0.2-1.4,0.6-1.9c0.4-0.5,1-0.8,1.7-0.8
			c0.7,0,1.3,0.2,1.7,0.7c0.4,0.5,0.6,1.1,0.6,1.9C145.8,35.6,145.6,36.2,145.2,36.7z"/>
		<path class="st0" d="M151.9,35.5c0,0.6-0.1,1.1-0.4,1.4c-0.3,0.3-0.8,0.5-1.4,0.5c-0.6,0-1.1-0.2-1.4-0.5
			c-0.3-0.3-0.4-0.8-0.4-1.4v-3.9h-0.7v3.9c0,0.8,0.2,1.5,0.6,1.9c0.4,0.4,1.1,0.7,1.9,0.7s1.5-0.2,1.9-0.7c0.4-0.4,0.6-1.1,0.6-1.9
			v-3.9h-0.7V35.5z"/>
		<path class="st0" d="M156.5,31.6h-2.6V38h0.7v-2.6h1.9c1.5,0,2.2-0.6,2.2-1.9C158.7,32.2,158,31.6,156.5,31.6z M157.6,34.4
			c-0.2,0.2-0.6,0.3-1.1,0.3h-1.8v-2.5h1.8c0.5,0,0.9,0.1,1.1,0.3c0.3,0.2,0.4,0.5,0.4,0.9C158,33.9,157.9,34.2,157.6,34.4z"/>
		<path class="st0" d="M160.2,31.6h-0.5c0.3,0.5,0.5,0.9,0.6,1.4c0.2,0.6,0.3,1.2,0.3,1.8c0,0.6-0.1,1.2-0.3,1.8
			c-0.2,0.5-0.4,1-0.6,1.4h0.5c0.3-0.4,0.5-0.9,0.7-1.4c0.2-0.6,0.3-1.2,0.3-1.8c0-0.6-0.1-1.2-0.3-1.8
			C160.8,32.5,160.5,32,160.2,31.6z"/>
		<path class="st0" d="M169.6,37c-0.4,0.3-0.8,0.4-1.3,0.4c-0.8,0-1.3-0.3-1.7-0.7c-0.4-0.5-0.6-1.1-0.6-1.9c0-0.8,0.2-1.4,0.6-1.9
			c0.4-0.5,1-0.8,1.7-0.8c0.5,0,0.9,0.1,1.3,0.4c0.4,0.2,0.6,0.6,0.7,1.1h0.7c-0.1-0.6-0.4-1.1-0.9-1.5c-0.5-0.4-1.1-0.6-1.8-0.6
			c-1,0-1.8,0.3-2.3,1c-0.5,0.6-0.7,1.4-0.7,2.3c0,0.9,0.2,1.7,0.7,2.3c0.5,0.7,1.3,1,2.3,1c0.7,0,1.3-0.2,1.8-0.6
			c0.5-0.4,0.9-1,1-1.7h-0.7C170.3,36.3,170,36.8,169.6,37z"/>
		<path class="st0" d="M174.1,33.2c-0.7,0-1.2,0.2-1.7,0.7c-0.4,0.5-0.6,1-0.6,1.7c0,0.7,0.2,1.3,0.6,1.7c0.4,0.5,1,0.7,1.7,0.7
			c0.7,0,1.2-0.2,1.7-0.7c0.4-0.4,0.6-1,0.6-1.7c0-0.7-0.2-1.3-0.6-1.7C175.3,33.5,174.8,33.2,174.1,33.2z M175.3,36.9
			c-0.3,0.4-0.7,0.6-1.2,0.6c-0.5,0-0.9-0.2-1.1-0.6c-0.3-0.3-0.4-0.8-0.4-1.3c0-0.5,0.1-0.9,0.4-1.3c0.3-0.4,0.7-0.6,1.1-0.6
			c0.5,0,0.9,0.2,1.2,0.6c0.2,0.3,0.4,0.8,0.4,1.3C175.6,36.2,175.5,36.6,175.3,36.9z"/>
		<path class="st0" d="M177.9,36.9c-0.2,0-0.3,0.1-0.4,0.2c-0.1,0.1-0.2,0.2-0.2,0.4c0,0.2,0.1,0.3,0.2,0.4c0.1,0.1,0.2,0.2,0.4,0.2
			c0.1,0,0.3-0.1,0.4-0.2c0.1-0.1,0.2-0.2,0.2-0.4c0-0.2-0.1-0.3-0.2-0.4C178.2,37,178,36.9,177.9,36.9z"/>
		<path class="st0" d="M180.3,36.9c-0.2,0-0.3,0-0.4,0.2c-0.1,0.1-0.2,0.2-0.2,0.4c0,0.2,0.1,0.3,0.2,0.4c0.1,0.1,0.2,0.2,0.4,0.2
			c0.1,0,0.1,0,0.2,0c0,0.2-0.1,0.4-0.2,0.6c-0.1,0.2-0.3,0.3-0.6,0.4v0.4c0.4-0.1,0.7-0.3,0.9-0.6c0.2-0.3,0.3-0.7,0.3-1
			c0-0.3-0.1-0.5-0.2-0.6C180.6,37,180.5,36.9,180.3,36.9z"/>
		<polygon class="st0" points="182.8,31.6 182.1,31.6 182.1,38 186.5,38 186.5,37.3 182.8,37.3 		"/>
		<path class="st0" d="M188.5,31.9l-0.7,0.3v1.2h-0.9V34h0.9v2.9c0,0.3,0.1,0.6,0.2,0.8c0.2,0.2,0.4,0.3,0.8,0.3h0.7v-0.6h-0.6
			c-0.2,0-0.3,0-0.3-0.1c-0.1-0.1-0.1-0.2-0.1-0.4V34h1.1v-0.6h-1.1V31.9z"/>
		<path class="st0" d="M193.9,34.2c-0.4-0.7-0.9-1-1.5-1c-0.7,0-1.2,0.2-1.5,0.7c-0.3,0.4-0.5,1-0.5,1.7c0,0.7,0.2,1.3,0.5,1.7
			c0.4,0.5,0.9,0.7,1.6,0.7c0.7,0,1.2-0.3,1.5-0.9V38h0.7v-6.5h-0.7V34.2z M193.9,35.7c0,0.5-0.1,0.9-0.3,1.3
			c-0.3,0.4-0.6,0.5-1.1,0.5c-0.5,0-0.9-0.2-1.1-0.5c-0.2-0.3-0.3-0.8-0.3-1.3c0-0.6,0.1-1,0.3-1.3c0.3-0.4,0.6-0.5,1.1-0.5
			c0.4,0,0.7,0.2,1,0.5C193.7,34.7,193.9,35.1,193.9,35.7L193.9,35.7z"/>
		<path class="st0" d="M196.7,37.1c-0.1-0.1-0.2-0.2-0.4-0.2c-0.2,0-0.3,0.1-0.4,0.2c-0.1,0.1-0.2,0.2-0.2,0.4
			c0,0.2,0.1,0.3,0.2,0.4c0.1,0.1,0.2,0.2,0.4,0.2c0.1,0,0.3-0.1,0.4-0.2c0.1-0.1,0.2-0.2,0.2-0.4C196.9,37.3,196.8,37.2,196.7,37.1
			z"/>
	</g>
</g>
</svg>
